<?xml version="1.0" encoding="UTF-8"?>
<svg id="Layer_3" data-name="Layer 3" xmlns="http://www.w3.org/2000/svg" viewBox="0 0 802.9 603.7">
  <g>
    <path d="M735.31,501.88c0,15.18-4.64,29.29-12.6,40.96l-54.42-40.82h.33v-72.75c37.35,3.13,66.69,34.45,66.69,72.61Z" fill="#034159" stroke-width="0"/>
    <path d="M668.29,502.02l54.42,40.82c-13.11,19.26-35.2,31.91-60.26,31.91-40.19,0-72.78-32.55-72.86-72.73h78.69Z" fill="#034159" stroke-width="0"/>
    <path d="M668.62,429.27v72.75h-.33l-62.02-46.52c13.36-16.18,33.57-26.49,56.19-26.49,2.08,0,4.13.09,6.16.26Z" fill="#030f17" stroke-width="0"/>
    <path d="M668.29,502.02h-78.69v-.14c0-17.61,6.25-33.78,16.67-46.38l62.02,46.52Z" fill="#030f17" stroke-width="0"/>
    <path d="M302.48,139.62c0,26.41-8.69,50.8-23.35,70.46l-71.54-53.67c9.15-12.18,14.57-27.31,14.57-43.72,0-40.24-32.62-72.87-72.86-72.87-21.17,0-40.23,9.03-53.53,23.46-1.77,1.72-3.41,3.59-4.9,5.57l-.35-.26c21.51-28.47,55.65-46.87,94.09-46.87,65.11,0,117.88,52.78,117.88,117.9Z" fill="#025951" stroke-width="0"/>
    <path d="M207.58,156.41l71.54,53.67c-21.49,28.8-55.82,47.45-94.53,47.45-65.1,0-117.87-52.78-117.87-117.91,0-26.67,8.86-51.27,23.78-71.03l.35.26c-1.47,1.95-2.8,4.03-3.96,6.21-6.63,10.98-10.46,23.86-10.46,37.63,0,40.24,32.62,72.87,72.86,72.87,23.83,0,45-11.45,58.29-29.15Z" fill="#034159" stroke-width="0"/>
    <path d="M222.15,112.69c0,16.4-5.42,31.54-14.57,43.72l-39.87-29.9c6.03-8.03,9.61-18,9.61-28.82,0-26.53-21.5-48.04-48.03-48.04-13.05,0-24.88,5.19-33.52,13.64,13.31-14.43,32.36-23.46,53.53-23.46,40.24,0,72.86,32.63,72.86,72.87Z" fill="#038c3e" stroke-width="0"/>
    <path d="M167.7,126.5l39.87,29.9c-13.29,17.7-34.45,29.15-58.29,29.15-40.24,0-72.86-32.63-72.86-72.87,0-13.77,3.82-26.65,10.46-37.63-3.6,6.74-5.64,14.44-5.64,22.62,0,26.53,21.5,48.04,48.03,48.04,15.71,0,29.67-7.55,38.42-19.22Z" fill="#038c3e" stroke-width="0"/>
    <path d="M177.31,97.68c0,10.82-3.57,20.8-9.61,28.82l-76.7-57.53c1.48-1.98,3.07-3.88,4.75-5.69,8.65-8.45,20.47-13.64,33.52-13.64,26.53,0,48.03,21.51,48.03,48.04Z" fill="#030f17" stroke-width="0"/>
    <path d="M91.01,68.98l76.7,57.53c-8.76,11.67-22.71,19.22-38.42,19.22-26.53,0-48.03-21.51-48.03-48.04,0-8.18,2.04-15.88,5.64-22.62,1.27-2.1,2.64-4.13,4.11-6.09Z" fill="#030f17" stroke-width="0"/>
    <path d="M90.86,68.86c1.49-1.98,3.13-3.85,4.9-5.57-1.68,1.81-3.27,3.71-4.75,5.69l-.15-.12Z" fill="#fff" stroke-width="0"/>
    <path d="M90.86,68.86l.15.12c-1.47,1.95-2.84,3.98-4.11,6.09,1.16-2.17,2.49-4.25,3.96-6.21Z" fill="#fff" stroke-width="0"/>
  </g>
  <g>
    <path d="M90.51,68.6c21.51-28.47,55.65-46.87,94.09-46.87,65.11,0,117.88,52.78,117.88,117.9,0,26.41-8.69,50.8-23.35,70.46-21.49,28.8-55.82,47.45-94.53,47.45-65.1,0-117.87-52.78-117.87-117.91,0-26.67,8.86-51.27,23.78-71.03Z" fill="none" stroke="#000" stroke-miterlimit="10"/>
    <path d="M95.76,63.28c13.31-14.43,32.36-23.46,53.53-23.46,40.24,0,72.86,32.63,72.86,72.87,0,16.4-5.42,31.54-14.57,43.72-13.29,17.7-34.45,29.15-58.29,29.15-40.24,0-72.86-32.63-72.86-72.87,0-13.77,3.82-26.65,10.46-37.63" fill="none" stroke="#000" stroke-miterlimit="10"/>
    <path d="M95.76,63.28c8.65-8.45,20.47-13.64,33.52-13.64,26.53,0,48.03,21.51,48.03,48.04,0,10.82-3.57,20.8-9.61,28.82-8.76,11.67-22.71,19.22-38.42,19.22-26.53,0-48.03-21.51-48.03-48.04,0-8.18,2.04-15.88,5.64-22.62,1.16-2.17,2.49-4.25,3.96-6.21,1.49-1.98,3.13-3.85,4.9-5.57Z" fill="none" stroke="#000" stroke-miterlimit="10"/>
    <path d="M668.62,429.27c37.35,3.13,66.69,34.45,66.69,72.61,0,15.18-4.64,29.29-12.6,40.96-13.11,19.26-35.2,31.91-60.26,31.91-40.19,0-72.78-32.55-72.86-72.73v-.14c0-17.61,6.25-33.78,16.67-46.38,13.36-16.18,33.57-26.49,56.19-26.49,2.08,0,4.13.09,6.16.26Z" fill="none" stroke="#000" stroke-miterlimit="10"/>
    <polyline points="1.2 1.6 90.51 68.6 90.86 68.86 91.01 68.98 167.7 126.5 207.58 156.41 279.12 210.08 468.16 351.89 606.27 455.5 668.29 502.02 722.71 542.84 801.7 602.1" fill="none" stroke="#0cf25d" stroke-miterlimit="10" stroke-width="4"/>
  </g>
</svg>