<?xml version="1.0" encoding="UTF-8"?>
<svg id="Layer_5" data-name="Layer 5" xmlns="http://www.w3.org/2000/svg" xmlns:xlink="http://www.w3.org/1999/xlink" viewBox="0 0 945 1093.32">
  <defs>
    <clipPath id="clippath">
      <path d="M765.65,68.08l7.35,4c14.03,7.63,27.18,17.14,39.21,28.45,42.69,40.17,66.14,98.27,66.02,163.57l-7.35-4c.12-65.3-23.33-123.41-66.02-163.57-12.03-11.31-25.17-20.82-39.21-28.45Z" fill="none" stroke-width="0"/>
    </clipPath>
    <clipPath id="clippath-1">
      <path d="M770.06,75.04l10.15,5.52c13.82,7.52,26.76,16.88,38.6,28.01,42.03,39.54,65.1,96.72,64.98,161l-10.15-5.52c.12-64.28-22.96-121.46-64.98-161-11.84-11.13-24.78-20.49-38.6-28.01Z" fill="none" stroke-width="0"/>
    </clipPath>
    <clipPath id="clippath-2">
      <path d="M846.56,141.15c24.31,35.81,37.32,80.11,37.23,128.41-1.32-5.34-2.62-9.14-5.03-15.63-2.15-36.7-12.17-70.65-29.2-99.71-1.02-4.98-1.79-8.58-3-13.07Z" fill="none" stroke-width="0"/>
    </clipPath>
    <clipPath id="clippath-3">
      <path d="M834.17,88.04l3.55-2.51c47.06,44.27,72.91,108.29,72.77,180.28l-4.59-.06c.13-70.97-25.34-134.06-71.73-177.71Z" fill="none" stroke-width="0"/>
    </clipPath>
    <clipPath id="clippath-4">
      <path d="M818.11,109.06c-.3-.27-.69-.65-.99-.92-1.04-.97-2.27-2.07-3.08-2.79-1.1-.98-2.32-2.02-3.21-2.78-2.73-2.32-5.52-4.49-6.57-5.3-.32-.25-.76-.58-1.09-.83-.64-.49-1.51-1.11-2.14-1.6-.27-.21-.62-.5-.89-.71-1.4-1.13-3.76-2.98-7.07-5.36-3.91-2.82-7.4-5.03-8.88-5.98,12.33,7.11,23.92,15.72,34.62,25.78,4.23,3.98,8.26,8.13,12.1,12.46-1.09-1.11-3.36-3.4-6.26-6.12-2.8-2.62-4.98-4.51-5.78-5.2-.23-.19-.53-.45-.75-.65Z" fill="none" stroke-width="0"/>
    </clipPath>
    <clipPath id="clippath-5">
      <path d="M761.83,75.12l7.35,4c-34.67-18.86-74.94-25.91-117.04-20l-7.35-4c42.11-5.92,82.37,1.13,117.04,20Z" fill="none" stroke-width="0"/>
    </clipPath>
    <clipPath id="clippath-6">
      <path d="M651.12,54.72c42.64-5.99,83.43,1.11,118.59,20.13l10.15,5.52c-35.16-19.03-75.95-26.12-118.59-20.13-3.04-1.66-7.1-3.86-10.15-5.52Z" fill="none" stroke-width="0"/>
    </clipPath>
    <clipPath id="clippath-7">
      <path d="M886.32,268.51l-2.53,1.06c.12-64.28-22.96-121.46-64.98-161-42.04-39.53-97.98-56.7-157.54-48.33l-1.02-4.4c60.5-8.5,117.35,8.94,160.05,49.1,42.69,40.17,66.14,98.27,66.02,163.57Z" fill="none" stroke-width="0"/>
    </clipPath>
    <clipPath id="clippath-8">
      <path d="M781.09,76.48l7.35,4c14.03,7.63,27.18,17.14,39.21,28.45,42.69,40.17,66.14,98.27,66.02,163.57l-7.35-4c.12-65.3-23.33-123.41-66.02-163.57-12.03-11.31-25.17-20.82-39.21-28.45Z" fill="none" stroke-width="0"/>
    </clipPath>
    <clipPath id="clippath-9">
      <path d="M776.13,48.73l7.35,4c-38.89-21.16-84.06-29.06-131.29-22.42l-7.35-4c47.23-6.64,92.4,1.27,131.29,22.42Z" fill="none" stroke-width="0"/>
    </clipPath>
    <clipPath id="clippath-10">
      <path d="M845.99,140.31c.19.28.38.56.58.84,1.21,4.49,1.98,8.09,3,13.07-9.36-15.98-20.85-30.48-34.31-43.15-41.37-38.9-96.41-55.8-155.02-47.56l1.04-3.28c44.4-6.24,86.8,1.72,122.92,22.55,1.53.97,5.58,3.54,9.96,6.76,1.69,1.24,2.46,1.82,4.11,3.1.57.44,1.32,1.03,1.88,1.48.27.21.62.5.89.71.31.24.75.55,1.07.79.72.54,3.34,2.49,6.56,5.12,2.49,2.04,4.24,3.58,5.4,4.59.32.28.73.65,1.04.93.62.55,1.43,1.29,2.04,1.86.3.28.69.65.99.92.22.2.53.45.75.65,1.14.98,2.51,2.2,4.09,3.63,3.68,3.35,6.79,6.5,7.96,7.69.23.25.45.51.68.76.67.77,1.34,1.54,2,2.32,4.41,5.18,8.54,10.59,12.4,16.21Z" fill="none" stroke-width="0"/>
    </clipPath>
    <clipPath id="clippath-11">
      <path d="M784.36,48.65l10.15,5.52c-39.46-21.46-85.28-29.49-133.19-22.75l-10.15-5.52c47.91-6.73,93.74,1.29,133.19,22.75Z" fill="none" stroke-width="0"/>
    </clipPath>
    <clipPath id="clippath-12">
      <path d="M660.28,34.7l1.04-3.28c66.7-9.37,129.34,9.84,176.4,54.11l-3.55,2.51c-46.4-43.64-108.14-62.58-173.89-53.34Z" fill="none" stroke-width="0"/>
    </clipPath>
    <clipPath id="clippath-13">
      <path d="M777.27,83.51l7.35,4c-34.67-18.86-74.94-25.91-117.04-20l-7.35-4c42.11-5.92,82.37,1.13,117.04,20Z" fill="none" stroke-width="0"/>
    </clipPath>
    <clipPath id="clippath-14">
      <path d="M791.57,57.13l7.35,4c-38.89-21.16-84.06-29.06-131.29-22.42l-7.35-4c47.23-6.64,92.4,1.27,131.29,22.42Z" fill="none" stroke-width="0"/>
    </clipPath>
    <clipPath id="clippath-15">
      <path d="M66.51,386.1l-7.35-4c.12-65.38,23.82-130.14,66.73-182.39,42.92-52.24,99.89-85.7,160.47-94.22l7.35,4c-60.58,8.51-117.55,41.97-160.47,94.22-42.91,52.25-66.61,117.01-66.73,182.39Z" fill="none" stroke-width="0"/>
    </clipPath>
    <clipPath id="clippath-16">
      <path d="M39.81,389.84l-7.35-4c.14-73.08,26.62-145.46,74.59-203.87,47.97-58.4,111.66-95.79,179.36-105.3l7.35,4c-67.71,9.52-131.39,46.9-179.36,105.3-47.97,58.41-74.45,130.79-74.59,203.87Z" fill="none" stroke-width="0"/>
    </clipPath>
    <clipPath id="clippath-17">
      <path d="M74.6,390.49l-2.53,1.06c.12-66.4,24.2-132.19,67.78-185.25,43.58-53.06,101.47-87.05,162.99-95.69l-1.04,3.28c-60.58,8.51-117.55,41.97-160.47,94.22-42.91,52.25-66.61,117.01-66.73,182.39Z" fill="none" stroke-width="0"/>
    </clipPath>
    <clipPath id="clippath-18">
      <path d="M72.07,391.56l-10.15-5.52c.12-66.4,24.2-132.19,67.78-185.25,43.58-53.06,101.47-87.05,162.99-95.69l10.15,5.52c-61.52,8.65-119.4,42.63-162.99,95.69-43.58,53.06-67.66,118.85-67.78,185.25Z" fill="none" stroke-width="0"/>
    </clipPath>
    <clipPath id="clippath-19">
      <path d="M301.82,106.2l1.02,4.4c-61.52,8.65-119.4,42.63-162.99,95.69-43.58,53.06-67.66,118.85-67.78,185.25l-4.59-.06c.12-67.42,24.57-134.24,68.83-188.11,44.25-53.88,103.04-88.39,165.51-97.17Z" fill="none" stroke-width="0"/>
    </clipPath>
    <clipPath id="clippath-20">
      <path d="M667.58,67.52c58.61-8.24,113.65,8.65,155.02,47.56,41.36,38.92,64.06,95.17,63.95,158.43l-1.17,631.6-804.58,113.08,1.16-623.68c.12-65.38,23.82-130.14,66.73-182.39,42.92-52.24,99.89-85.7,160.47-94.22l358.43-50.37Z" fill="none" stroke-width="0"/>
    </clipPath>
    <clipPath id="clippath-21">
      <path d="M81.95,394.49l-7.35-4c.12-65.38,23.82-130.14,66.73-182.39,42.92-52.24,99.89-85.7,160.47-94.22l7.35,4c-60.58,8.51-117.55,41.97-160.47,94.22-42.91,52.25-66.61,117.01-66.73,182.39Z" fill="none" stroke-width="0"/>
    </clipPath>
    <clipPath id="clippath-22">
      <path d="M45.37,395.3l-10.15-5.52c.14-74.1,27-147.51,75.64-206.73,48.64-59.21,113.23-97.13,181.88-106.78l10.15,5.52c-68.65,9.65-133.24,47.57-181.88,106.78-48.64,59.22-75.5,132.63-75.64,206.73Z" fill="none" stroke-width="0"/>
    </clipPath>
    <clipPath id="clippath-23">
      <path d="M47.9,394.24l-2.53,1.06c.14-74.1,27-147.51,75.64-206.73,48.64-59.21,113.23-97.13,181.88-106.78l-1.04,3.28c-67.71,9.52-131.39,46.9-179.36,105.3-47.97,58.41-74.45,130.79-74.59,203.87Z" fill="none" stroke-width="0"/>
    </clipPath>
    <clipPath id="clippath-24">
      <path d="M55.25,398.24l-7.35-4c.14-73.08,26.62-145.46,74.59-203.87,47.97-58.4,111.66-95.79,179.36-105.3l7.35,4c-67.71,9.52-131.39,46.9-179.36,105.3-47.97,58.41-74.45,130.79-74.59,203.87Z" fill="none" stroke-width="0"/>
    </clipPath>
  </defs>
  <g isolation="isolate">
    <polygon points="905.9 265.75 910.49 265.81 909.26 930.07 904.68 926.17 905.9 265.75" fill="#00caca" stroke-width="0"/>
    <polygon points="885.13 907.78 882.61 905 883.79 269.57 886.32 268.51 885.13 907.78" fill="#00d5d5" stroke-width="0"/>
    <polygon points="892.48 911.78 885.13 907.78 886.32 268.51 893.67 272.51 892.48 911.78" fill="#008282" stroke-width="0"/>
    <g isolation="isolate">
      <g clip-path="url(#clippath)">
        <g isolation="isolate">
          <path d="M878.23,264.11l-7.35-4c.12-65.3-23.33-123.41-66.02-163.57-12.03-11.31-25.17-20.82-39.21-28.45l7.35,4c14.03,7.63,27.18,17.14,39.21,28.45,42.69,40.17,66.14,98.27,66.02,163.57" fill="#008585" stroke-width="0"/>
        </g>
      </g>
    </g>
    <g isolation="isolate">
      <g clip-path="url(#clippath-1)">
        <g isolation="isolate">
          <path d="M883.79,269.57l-10.15-5.52c.12-64.28-22.96-121.46-64.98-161-11.84-11.13-24.78-20.49-38.6-28.01l10.15,5.52c13.82,7.52,26.76,16.88,38.6,28.01,42.03,39.54,65.1,96.72,64.98,161" fill="#008585" stroke-width="0"/>
        </g>
      </g>
    </g>
    <g isolation="isolate">
      <g clip-path="url(#clippath-2)">
        <g isolation="isolate">
          <path d="M820.52,116.23l3.64-2.43c8.91,9.05,16.88,18.94,23.88,29.56l-4.02,1.96c-6.89-10.44-14.74-20.18-23.5-29.09" fill="#090111" stroke-width="0"/>
          <path d="M844.02,145.32l4.02-1.96c5.82,8.83,10.97,18.16,15.42,27.93l-4.26,1.51c-4.37-9.61-9.44-18.79-15.17-27.48" fill="#090111" stroke-width="0"/>
          <path d="M859.19,172.8l4.26-1.51c3.89,8.54,7.23,17.41,10.03,26.56l-4.42,1.08c-2.75-9.01-6.04-17.74-9.87-26.14" fill="#090111" stroke-width="0"/>
          <path d="M869.06,198.94l4.42-1.08c2.5,8.2,4.56,16.62,6.16,25.25l-4.52.68c-1.58-8.49-3.6-16.78-6.06-24.85" fill="#090112" stroke-width="0"/>
          <path d="M875.12,223.79l4.52-.68c1.44,7.74,2.5,15.64,3.2,23.67l-4.57.3c-.68-7.91-1.73-15.68-3.15-23.29" fill="#0a0112" stroke-width="0"/>
          <path d="M878.27,247.08l4.57-.3c.62,7.21.94,14.54.95,21.96l-4.59-.05c0-7.3-.32-14.51-.93-21.61" fill="#0a0213" stroke-width="0"/>
          <path d="M879.2,268.69l4.59.05c0,.28,0,.55,0,.83l-4.59-.06c0-.27,0-.55,0-.82" fill="#0a0214" stroke-width="0"/>
        </g>
      </g>
    </g>
    <g isolation="isolate">
      <g clip-path="url(#clippath-3)">
        <g isolation="isolate">
          <path d="M834.17,88.04l3.55-2.51c2.04,1.92,4.05,3.88,6.01,5.88l-3.64,2.43c-1.94-1.97-3.91-3.9-5.92-5.79" fill="#00a3a3" stroke-width="0"/>
          <path d="M840.09,93.84l3.64-2.43c9.97,10.14,18.9,21.21,26.73,33.09l-4.02,1.96c-7.72-11.71-16.52-22.63-26.35-32.62" fill="#00a8a8" stroke-width="0"/>
          <path d="M866.45,126.46l4.02-1.96c6.52,9.89,12.28,20.34,17.26,31.27l-4.26,1.51c-4.91-10.78-10.59-21.08-17.01-30.82" fill="#00adad" stroke-width="0"/>
          <path d="M883.46,157.28l4.26-1.51c4.35,9.56,8.1,19.49,11.23,29.74l-4.42,1.08c-3.08-10.11-6.78-19.9-11.07-29.32" fill="#00b3b3" stroke-width="0"/>
          <path d="M894.53,186.6l4.42-1.08c2.8,9.18,5.1,18.61,6.9,28.27l-4.52.68c-1.77-9.52-4.04-18.82-6.8-27.87" fill="#00b8b8" stroke-width="0"/>
          <path d="M901.33,214.47l4.52-.68c1.61,8.66,2.8,17.51,3.58,26.51l-4.57.3c-.76-8.87-1.94-17.59-3.53-26.13" fill="#00bdbd" stroke-width="0"/>
          <path d="M904.86,240.6l4.57-.3c.7,8.08,1.05,16.28,1.06,24.59l-4.59-.05c-.01-8.19-.36-16.28-1.05-24.24" fill="#00c2c2" stroke-width="0"/>
          <path d="M905.9,264.83l4.59.05c0,.31,0,.62,0,.93l-4.59-.06c0-.31,0-.61,0-.92" fill="#00c7c7" stroke-width="0"/>
        </g>
      </g>
    </g>
    <g isolation="isolate">
      <g clip-path="url(#clippath-4)">
        <g isolation="isolate">
          <path d="M660.23,63.52l1.04-3.28c44.72-6.28,87.4,1.83,123.69,23l-3.01,2.91c-35.71-20.83-77.7-28.81-121.71-22.63" fill="#080110" stroke-width="0"/>
          <path d="M781.94,86.15l3.01-2.91c12.04,7.02,23.38,15.48,33.85,25.33,1.82,1.71,3.6,3.46,5.35,5.24l-3.64,2.43c-1.72-1.75-3.48-3.47-5.27-5.15-10.31-9.69-21.46-18.02-33.31-24.93" fill="#080110" stroke-width="0"/>
          <path d="M820.52,116.23l3.64-2.43c8.91,9.05,16.88,18.94,23.88,29.56l-4.02,1.96c-6.89-10.44-14.74-20.18-23.5-29.09" fill="#090111" stroke-width="0"/>
        </g>
      </g>
    </g>
    <g isolation="isolate">
      <g clip-path="url(#clippath-5)">
        <g isolation="isolate">
          <path d="M652.14,59.12l-7.35-4c26.49-3.72,52.25-2.31,76.35,3.94l7.35,4c-24.1-6.25-49.86-7.66-76.35-3.94" fill="#090111" stroke-width="0"/>
          <path d="M728.49,63.06l-7.35-4c11.82,3.07,23.25,7.3,34.16,12.67l7.35,4c-10.91-5.37-22.34-9.6-34.16-12.67" fill="#080110" stroke-width="0"/>
          <path d="M762.65,75.73l-7.35-4c2.2,1.08,4.38,2.21,6.53,3.38l7.35,4c-2.16-1.17-4.33-2.3-6.53-3.38" fill="#080110" stroke-width="0"/>
        </g>
      </g>
    </g>
    <g isolation="isolate">
      <g clip-path="url(#clippath-6)">
        <g isolation="isolate">
          <path d="M661.27,60.24l-10.15-5.52c26.92-3.78,53.09-2.35,77.58,4.01l10.15,5.52c-24.49-6.36-50.67-7.79-77.58-4.01" fill="#090111" stroke-width="0"/>
          <path d="M738.85,64.24l-10.15-5.52c12.02,3.12,23.63,7.42,34.72,12.88l10.15,5.52c-11.09-5.46-22.7-9.76-34.72-12.88" fill="#080110" stroke-width="0"/>
          <path d="M773.57,77.12l-10.15-5.52c2.23,1.1,4.45,2.24,6.64,3.44l10.15,5.52c-2.19-1.19-4.4-2.34-6.64-3.44" fill="#080110" stroke-width="0"/>
        </g>
      </g>
    </g>
    <g isolation="isolate">
      <g clip-path="url(#clippath-7)">
        <g isolation="isolate">
          <path d="M886.32,268.51l-2.53,1.06c.01-5.48-.15-10.9-.47-16.27l2.52-1.32c.33,5.45.49,10.96.48,16.53" fill="#00c7c7" stroke-width="0"/>
          <path d="M885.84,251.98l-2.52,1.32c-.47-7.77-1.29-15.42-2.44-22.92l2.48-1.68c1.17,7.63,2,15.4,2.48,23.29" fill="#0cc" stroke-width="0"/>
          <path d="M883.36,228.69l-2.48,1.68c-1.13-7.37-2.6-14.61-4.38-21.69l2.41-2.03c1.81,7.19,3.3,14.54,4.45,22.03" fill="#00d1d1" stroke-width="0"/>
          <path d="M878.91,206.66l-2.41,2.03c-1.77-7.01-3.84-13.88-6.23-20.57l2.31-2.36c2.42,6.8,4.54,13.77,6.33,20.9" fill="#00d6d6" stroke-width="0"/>
          <path d="M872.58,185.76l-2.31,2.36c-2.4-6.74-5.12-13.31-8.13-19.68l2.18-2.67c3.07,6.48,5.82,13.15,8.26,19.99" fill="#00dbdb" stroke-width="0"/>
          <path d="M864.31,165.77l-2.18,2.67c-3.06-6.47-6.43-12.74-10.11-18.79l2.02-2.98c3.74,6.15,7.16,12.52,10.27,19.09" fill="#00e0e0" stroke-width="0"/>
          <path d="M854.04,146.67l-2.02,2.98c-3.76-6.19-7.83-12.15-12.22-17.86l1.83-3.26c4.46,5.8,8.6,11.86,12.41,18.14" fill="#00e6e6" stroke-width="0"/>
          <path d="M841.63,128.53l-1.83,3.26c-4.47-5.82-9.26-11.39-14.36-16.67l1.6-3.53c5.18,5.37,10.05,11.02,14.59,16.94" fill="#00ebeb" stroke-width="0"/>
          <path d="M827.04,111.59l-1.6,3.53c-2.16-2.23-4.37-4.42-6.64-6.55-3.08-2.89-6.23-5.67-9.45-8.32l1.34-3.76c3.27,2.7,6.48,5.51,9.6,8.45,2.3,2.17,4.55,4.39,6.74,6.66" fill="#00f0f0" stroke-width="0"/>
          <path d="M810.69,96.48l-1.34,3.76c-5.33-4.39-10.85-8.44-16.54-12.16l1.08-3.96c5.78,3.78,11.39,7.9,16.8,12.35" fill="#00f5f5" stroke-width="0"/>
          <path d="M793.89,84.13l-1.08,3.96c-5.13-3.35-10.4-6.43-15.8-9.23l.83-4.1c5.49,2.84,10.84,5.97,16.05,9.37" fill="#00fafa" stroke-width="0"/>
          <path d="M777.84,74.76l-.83,4.1c-4.69-2.43-9.47-4.65-14.35-6.66l.6-4.21c4.95,2.04,9.81,4.3,14.58,6.77" fill="aqua" stroke-width="0"/>
          <path d="M763.26,67.99l-.6,4.21c-4.14-1.71-8.35-3.26-12.61-4.67l.4-4.28c4.33,1.42,8.61,3,12.81,4.74" fill="#1fffff" stroke-width="0"/>
          <path d="M750.44,63.25l-.4,4.28c-3.74-1.23-7.53-2.34-11.36-3.33l.21-4.34c3.89,1.01,7.74,2.13,11.54,3.38" fill="#2bffff" stroke-width="0"/>
          <path d="M738.9,59.86l-.21,4.34c-3.33-.86-6.68-1.63-10.07-2.31l.05-4.38c3.44.69,6.85,1.47,10.23,2.34" fill="#35ffff" stroke-width="0"/>
          <path d="M728.67,57.52l-.05,4.38c-3.01-.6-6.05-1.13-9.1-1.59l-.09-4.4c3.1.47,6.19,1,9.25,1.62" fill="#3dffff" stroke-width="0"/>
          <path d="M719.42,55.9l.09,4.4c-2.8-.42-5.62-.78-8.45-1.07l-.23-4.42c2.88.3,5.74.67,8.58,1.09" fill="#4ff" stroke-width="0"/>
          <path d="M710.84,54.81l.23,4.42c-2.63-.28-5.28-.5-7.94-.67l-.36-4.43c2.7.17,5.39.4,8.07.68" fill="#4bffff" stroke-width="0"/>
          <path d="M702.77,54.13l.36,4.43c-2.46-.16-4.92-.27-7.4-.33l-.47-4.43c2.52.07,5.03.18,7.52.34" fill="#51ffff" stroke-width="0"/>
          <path d="M695.25,53.79l.47,4.43c-2.36-.06-4.73-.08-7.11-.06l-.59-4.44c2.42-.02,4.82,0,7.22.06" fill="#57ffff" stroke-width="0"/>
          <path d="M688.03,53.73l.59,4.44c-2.25.02-4.5.08-6.76.17l-.69-4.43c2.3-.1,4.58-.16,6.87-.18" fill="#5cffff" stroke-width="0"/>
          <path d="M681.16,53.91l.69,4.43c-2.2.09-4.41.22-6.63.39l-.8-4.43c2.25-.17,4.5-.3,6.73-.39" fill="#61ffff" stroke-width="0"/>
          <path d="M674.43,54.3l.8,4.43c-2.16.16-4.34.36-6.51.58l-.9-4.42c2.21-.23,4.42-.43,6.62-.59" fill="#65ffff" stroke-width="0"/>
          <path d="M667.82,54.9l.9,4.42c-2.1.22-4.21.48-6.33.76l-1-4.41c2.15-.29,4.29-.55,6.43-.77" fill="#6affff" stroke-width="0"/>
          <path d="M661.39,55.67l1,4.41c-.38.05-.75.1-1.13.16l-1.02-4.4c.38-.05.77-.11,1.15-.16" fill="#6effff" stroke-width="0"/>
        </g>
      </g>
    </g>
    <g isolation="isolate">
      <g clip-path="url(#clippath-8)">
        <g isolation="isolate">
          <path d="M893.67,272.51l-7.35-4c.12-65.3-23.33-123.41-66.02-163.57-12.03-11.31-25.17-20.82-39.21-28.45l7.35,4c14.03,7.63,27.18,17.14,39.21,28.45,42.69,40.17,66.14,98.27,66.02,163.57" fill="#008585" stroke-width="0"/>
        </g>
      </g>
    </g>
    <g isolation="isolate">
      <g clip-path="url(#clippath-9)">
        <g isolation="isolate">
          <path d="M652.19,30.3l-7.35-4c29.72-4.18,58.62-2.6,85.65,4.42l7.35,4c-27.03-7.02-55.93-8.6-85.65-4.42" fill="#00a8a8" stroke-width="0"/>
          <path d="M737.84,34.72l-7.35-4c13.26,3.44,26.07,8.19,38.31,14.21l7.35,4c-12.24-6.02-25.05-10.77-38.31-14.21" fill="#00a3a3" stroke-width="0"/>
          <path d="M776.16,48.93l-7.35-4c2.47,1.21,4.91,2.48,7.33,3.79l7.35,4c-2.42-1.32-4.86-2.58-7.33-3.79" fill="#009e9e" stroke-width="0"/>
        </g>
      </g>
    </g>
    <g isolation="isolate">
      <g clip-path="url(#clippath-10)">
        <g isolation="isolate">
          <path d="M660.23,63.52l1.04-3.28c44.72-6.28,87.4,1.83,123.69,23l-3.01,2.91c-35.71-20.83-77.7-28.81-121.71-22.63" fill="#080110" stroke-width="0"/>
          <path d="M781.94,86.15l3.01-2.91c12.04,7.02,23.38,15.48,33.85,25.33,1.82,1.71,3.6,3.46,5.35,5.24l-3.64,2.43c-1.72-1.75-3.48-3.47-5.27-5.15-10.31-9.69-21.46-18.02-33.31-24.93" fill="#080110" stroke-width="0"/>
          <path d="M820.52,116.23l3.64-2.43c8.91,9.05,16.88,18.94,23.88,29.56l-4.02,1.96c-6.89-10.44-14.74-20.18-23.5-29.09" fill="#090111" stroke-width="0"/>
          <path d="M844.02,145.32l4.02-1.96c5.82,8.83,10.97,18.16,15.42,27.93l-4.26,1.51c-4.37-9.61-9.44-18.79-15.17-27.48" fill="#090111" stroke-width="0"/>
        </g>
      </g>
    </g>
    <g isolation="isolate">
      <g clip-path="url(#clippath-11)">
        <g isolation="isolate">
          <path d="M661.32,31.42l-10.15-5.52c30.14-4.24,59.46-2.63,86.89,4.49l10.15,5.52c-27.43-7.12-56.74-8.72-86.89-4.49" fill="#00a8a8" stroke-width="0"/>
          <path d="M748.2,35.9l-10.15-5.52c13.45,3.49,26.45,8.31,38.87,14.42l10.15,5.52c-12.42-6.11-25.42-10.93-38.87-14.42" fill="#00a3a3" stroke-width="0"/>
          <path d="M787.08,50.32l-10.15-5.52c2.5,1.23,4.98,2.51,7.43,3.85l10.15,5.52c-2.45-1.33-4.93-2.62-7.43-3.85" fill="#009e9e" stroke-width="0"/>
        </g>
      </g>
    </g>
    <g isolation="isolate">
      <g clip-path="url(#clippath-12)">
        <g isolation="isolate">
          <path d="M660.28,34.7l1.04-3.28c50.08-7.04,97.87,2.04,138.5,25.74l-3.01,2.91c-40.05-23.36-87.16-32.31-136.52-25.37" fill="#009e9e" stroke-width="0"/>
          <path d="M796.8,60.08l3.01-2.91c13.48,7.87,26.18,17.34,37.91,28.37l-3.55,2.51c-11.56-10.87-24.07-20.22-37.37-27.97" fill="#00a3a3" stroke-width="0"/>
        </g>
      </g>
    </g>
    <g isolation="isolate">
      <g clip-path="url(#clippath-13)">
        <g isolation="isolate">
          <path d="M667.58,67.52l-7.35-4c26.49-3.72,52.25-2.31,76.35,3.94l7.35,4c-24.1-6.25-49.86-7.66-76.35-3.94" fill="#090111" stroke-width="0"/>
          <path d="M743.93,71.46l-7.35-4c11.82,3.07,23.25,7.3,34.16,12.67l7.35,4c-10.91-5.37-22.34-9.6-34.16-12.67" fill="#080110" stroke-width="0"/>
          <path d="M778.09,84.13l-7.35-4c2.2,1.08,4.38,2.21,6.53,3.38l7.35,4c-2.16-1.17-4.33-2.3-6.53-3.38" fill="#080110" stroke-width="0"/>
        </g>
      </g>
    </g>
    <g isolation="isolate">
      <g clip-path="url(#clippath-14)">
        <g isolation="isolate">
          <path d="M667.63,38.7l-7.35-4c29.72-4.18,58.62-2.6,85.65,4.42l7.35,4c-27.03-7.02-55.93-8.6-85.65-4.42" fill="#00a8a8" stroke-width="0"/>
          <path d="M753.28,43.12l-7.35-4c13.26,3.44,26.07,8.19,38.31,14.21l7.35,4c-12.24-6.02-25.05-10.77-38.31-14.21" fill="#00a3a3" stroke-width="0"/>
          <path d="M791.6,57.33l-7.35-4c2.47,1.21,4.91,2.48,7.33,3.79l7.35,4c-2.42-1.32-4.86-2.58-7.33-3.79" fill="#009e9e" stroke-width="0"/>
        </g>
      </g>
    </g>
    <polygon points="58.22 1018.46 50.87 1014.46 869.69 899.38 877.04 903.38 58.22 1018.46" fill="#00b4b4" stroke-width="0"/>
    <polygon points="70.9 1019.08 60.76 1013.56 872.46 899.48 882.61 905 70.9 1019.08" fill="#00b4b4" stroke-width="0"/>
    <polygon points="878.03 901.1 882.61 905 70.91 1019.08 73.44 1014.18 878.03 901.1" fill="#0d0219" stroke-width="0"/>
    <polygon points="65.36 1009.78 58 1005.78 59.16 382.1 66.51 386.1 65.36 1009.78" fill="#07010d" stroke-width="0"/>
    <polygon points="70.91 1019.08 60.76 1013.56 61.92 386.04 72.07 391.56 70.91 1019.08" fill="#07010d" stroke-width="0"/>
    <polygon points="66.31 1022.86 70.9 1019.08 882.61 905 885.13 907.78 66.31 1022.86" fill="#0aa" stroke-width="0"/>
    <polygon points="904.68 926.17 909.26 930.07 44.15 1051.65 46.69 1046.75 904.68 926.17" fill="#00fafa" stroke-width="0"/>
    <polygon points="73.66 1026.86 66.31 1022.86 885.13 907.78 892.48 911.78 73.66 1026.86" fill="#00b4b4" stroke-width="0"/>
    <polygon points="293.72 109.49 286.36 105.49 644.79 55.12 652.14 59.12 293.72 109.49" fill="#090112" stroke-width="0"/>
    <polygon points="293.77 80.68 286.41 76.68 644.84 26.3 652.19 30.3 293.77 80.68" fill="#00b4b4" stroke-width="0"/>
    <polygon points="301.8 113.89 302.84 110.61 661.27 60.24 660.23 63.52 301.8 113.89" fill="#090111" stroke-width="0"/>
    <polygon points="302.84 110.61 292.69 105.09 651.12 54.72 661.27 60.24 302.84 110.61" fill="#090112" stroke-width="0"/>
    <polygon points="660.24 55.83 661.26 60.23 302.84 110.61 301.82 106.2 660.24 55.83" fill="#00fafa" stroke-width="0"/>
    <polygon points="301.85 85.08 302.89 81.79 661.32 31.42 660.28 34.7 301.85 85.08" fill="#0aa" stroke-width="0"/>
    <polygon points="302.89 81.79 292.74 76.27 651.17 25.9 661.32 31.42 302.89 81.79" fill="#00b4b4" stroke-width="0"/>
    <polygon points="309.16 117.89 301.8 113.89 660.23 63.52 667.58 67.52 309.16 117.89" fill="#090112" stroke-width="0"/>
    <polygon points="309.21 89.08 301.85 85.08 660.28 34.7 667.63 38.7 309.21 89.08" fill="#00b4b4" stroke-width="0"/>
    <polygon points="38.6 1042.35 31.25 1038.35 32.46 385.84 39.81 389.84 38.6 1042.35" fill="#008282" stroke-width="0"/>
    <polygon points="73.44 1014.18 70.91 1019.08 72.07 391.56 74.6 390.49 73.44 1014.18" fill="#0b0215" stroke-width="0"/>
    <polygon points="67.48 391.49 72.07 391.55 70.9 1019.08 66.31 1022.86 67.48 391.49" fill="#00caca" stroke-width="0"/>
    <g isolation="isolate">
      <g clip-path="url(#clippath-15)">
        <g isolation="isolate">
          <path d="M66.51,386.1l-7.35-4c.06-32.84,6.07-65.53,17.48-96.55l7.35,4c-11.41,31.02-17.42,63.71-17.48,96.55" fill="#07010d" stroke-width="0"/>
          <path d="M83.99,289.54l-7.35-4c4.75-12.91,10.43-25.53,17-37.75l7.35,4c-6.57,12.22-12.25,24.84-17,37.75" fill="#07010e" stroke-width="0"/>
          <path d="M100.99,251.8l-7.35-4c5.53-10.28,11.7-20.28,18.47-29.94l7.35,4c-6.77,9.66-12.94,19.66-18.47,29.94" fill="#07010e" stroke-width="0"/>
          <path d="M119.46,221.85l-7.35-4c4.35-6.2,8.94-12.25,13.79-18.15,2.27-2.76,4.57-5.46,6.91-8.12l7.35,4c-2.34,2.65-4.65,5.36-6.91,8.12-4.84,5.9-9.44,11.95-13.79,18.15" fill="#08010f" stroke-width="0"/>
          <path d="M140.16,195.59l-7.35-4c7.37-8.35,15.12-16.17,23.2-23.44l7.35,4c-8.07,7.27-15.82,15.09-23.2,23.44" fill="#08010f" stroke-width="0"/>
          <path d="M163.36,172.15l-7.35-4c8.71-7.84,17.81-15.04,27.22-21.55l7.35,4c-9.41,6.51-18.5,13.71-27.22,21.55" fill="#080110" stroke-width="0"/>
          <path d="M190.57,150.6l-7.35-4c11.67-8.08,23.83-15.1,36.37-21.01l7.35,4c-12.54,5.91-24.7,12.93-36.37,21.01" fill="#080110" stroke-width="0"/>
          <path d="M226.94,129.6l-7.35-4c21.36-10.06,43.81-16.88,66.77-20.1l7.35,4c-22.97,3.23-45.41,10.04-66.77,20.1" fill="#090111" stroke-width="0"/>
        </g>
      </g>
    </g>
    <polygon points="80.8 1018.18 73.44 1014.18 74.6 390.49 81.95 394.49 80.8 1018.18" fill="#07010d" stroke-width="0"/>
    <polygon points="44.15 1051.65 34 1046.13 35.22 389.78 45.37 395.3 44.15 1051.65" fill="#008282" stroke-width="0"/>
    <polygon points="46.69 1046.75 44.15 1051.65 45.37 395.3 47.9 394.24 46.69 1046.75" fill="#00d5d5" stroke-width="0"/>
    <g isolation="isolate">
      <g clip-path="url(#clippath-16)">
        <g isolation="isolate">
          <path d="M39.81,389.84l-7.35-4c.07-36.71,6.79-73.24,19.54-107.92l7.35,4c-12.75,34.68-19.47,71.21-19.54,107.92" fill="#008585" stroke-width="0"/>
          <path d="M59.35,281.92l-7.35-4c5.3-14.43,11.65-28.53,19-42.2l7.35,4c-7.35,13.66-13.7,27.77-19,42.2" fill="#008a8a" stroke-width="0"/>
          <path d="M78.35,239.73l-7.35-4c6.18-11.5,13.07-22.68,20.65-33.47l7.35,4c-7.57,10.8-14.46,21.98-20.65,33.47" fill="#008f8f" stroke-width="0"/>
          <path d="M99,206.25l-7.35-4c4.86-6.92,9.99-13.69,15.4-20.28,2.53-3.08,5.11-6.11,7.73-9.07l7.35,4c-2.62,2.96-5.19,5.99-7.73,9.07-5.41,6.59-10.55,13.35-15.4,20.28" fill="#009494" stroke-width="0"/>
          <path d="M122.13,176.91l-7.35-4c8.24-9.33,16.9-18.07,25.92-26.19l7.35,4c-9.02,8.12-17.68,16.86-25.92,26.19" fill="#099" stroke-width="0"/>
          <path d="M148.05,150.71l-7.35-4c9.74-8.77,19.9-16.81,30.42-24.08l7.35,4c-10.52,7.28-20.68,15.32-30.42,24.08" fill="#009e9e" stroke-width="0"/>
          <path d="M178.47,126.63l-7.35-4c13.05-9.03,26.64-16.88,40.65-23.48l7.35,4c-14.01,6.6-27.61,14.45-40.65,23.48" fill="#00a3a3" stroke-width="0"/>
          <path d="M219.12,103.15l-7.35-4c23.88-11.25,48.98-18.87,74.65-22.47l7.35,4c-25.67,3.61-50.77,11.22-74.65,22.47" fill="#00a8a8" stroke-width="0"/>
        </g>
      </g>
    </g>
    <polygon points="54.04 1050.75 46.69 1046.75 47.9 394.24 55.25 398.24 54.04 1050.75" fill="#008282" stroke-width="0"/>
    <g isolation="isolate">
      <g clip-path="url(#clippath-17)">
        <g isolation="isolate">
          <path d="M74.6,390.49l-2.53,1.06c0-2.79.05-5.57.14-8.36l2.53-.93c-.09,2.74-.13,5.49-.14,8.23" fill="#0a0214" stroke-width="0"/>
          <path d="M74.74,382.26l-2.53.93c.28-8.76.98-17.49,2.07-26.18l2.5-.53c-1.08,8.56-1.77,17.16-2.04,25.78" fill="#0a0213" stroke-width="0"/>
          <path d="M76.78,356.48l-2.5.53c1.15-9.12,2.75-18.19,4.78-27.18l2.42-.11c-2,8.85-3.57,17.77-4.71,26.75" fill="#0a0112" stroke-width="0"/>
          <path d="M81.49,329.73l-2.42.11c2.18-9.62,4.85-19.14,8-28.53l2.3.33c-3.11,9.24-5.74,18.61-7.88,28.09" fill="#090112" stroke-width="0"/>
          <path d="M89.37,301.64l-2.3-.33c3.46-10.3,7.5-20.43,12.11-30.35l2.11.8c-4.53,9.76-8.51,19.74-11.92,29.88" fill="#090111" stroke-width="0"/>
          <path d="M101.29,271.76l-2.11-.8c5.22-11.24,11.16-22.21,17.79-32.82l1.84,1.31c-6.53,10.45-12.38,21.24-17.52,32.31" fill="#090111" stroke-width="0"/>
          <path d="M118.81,239.45l-1.84-1.31c6.89-11.02,14.53-21.66,22.88-31.83,1.3-1.58,2.61-3.14,3.93-4.69l1.42,1.88c-1.3,1.52-2.59,3.06-3.87,4.62-8.23,10.02-15.75,20.49-22.53,31.34" fill="#090111" stroke-width="0"/>
          <path d="M145.21,203.49l-1.42-1.88c12.99-15.18,27.17-28.71,42.28-40.44l.77,2.5c-14.88,11.55-28.84,24.87-41.63,39.81" fill="#080110" stroke-width="0"/>
          <path d="M186.83,163.67l-.77-2.5c35.04-27.2,75.07-44.7,116.78-50.57l-1.04,3.28c-41.06,5.77-80.47,23-114.97,49.78" fill="#080110" stroke-width="0"/>
        </g>
      </g>
    </g>
    <g isolation="isolate">
      <g clip-path="url(#clippath-18)">
        <g isolation="isolate">
          <path d="M72.07,391.56l-10.15-5.52c.06-33.36,6.17-66.56,17.75-98.07l10.15,5.52c-11.59,31.51-17.69,64.71-17.75,98.07" fill="#07010d" stroke-width="0"/>
          <path d="M89.83,293.49l-10.15-5.52c4.82-13.11,10.59-25.93,17.27-38.35l10.15,5.52c-6.68,12.42-12.45,25.23-17.27,38.35" fill="#07010e" stroke-width="0"/>
          <path d="M107.09,255.14l-10.15-5.52c5.62-10.44,11.88-20.6,18.76-30.41l10.15,5.52c-6.88,9.81-13.14,19.97-18.76,30.41" fill="#07010e" stroke-width="0"/>
          <path d="M125.85,224.73l-10.15-5.52c4.41-6.29,9.08-12.44,14-18.43,2.3-2.8,4.64-5.55,7.02-8.24l10.15,5.52c-2.38,2.69-4.72,5.44-7.02,8.24-4.92,5.99-9.59,12.13-14,18.43" fill="#08010f" stroke-width="0"/>
          <path d="M146.87,198.06l-10.15-5.52c7.49-8.48,15.36-16.42,23.56-23.8l10.15,5.52c-8.2,7.38-16.07,15.32-23.56,23.8" fill="#08010f" stroke-width="0"/>
          <path d="M170.43,174.26l-10.15-5.52c8.85-7.97,18.09-15.28,27.65-21.89l10.15,5.52c-9.56,6.61-18.8,13.92-27.65,21.89" fill="#080110" stroke-width="0"/>
          <path d="M198.07,152.37l-10.15-5.52c11.86-8.2,24.21-15.34,36.95-21.34l10.15,5.52c-12.73,6-25.09,13.14-36.95,21.34" fill="#080110" stroke-width="0"/>
          <path d="M235.02,131.03l-10.15-5.52c21.7-10.22,44.5-17.14,67.82-20.42l10.15,5.52c-23.32,3.28-46.12,10.2-67.82,20.42" fill="#090111" stroke-width="0"/>
        </g>
      </g>
    </g>
    <g isolation="isolate">
      <g clip-path="url(#clippath-19)">
        <g isolation="isolate">
          <path d="M301.82,106.2l1.02,4.4c-1.79.25-3.58.52-5.36.82l-1.1-4.39c1.81-.3,3.63-.58,5.44-.83" fill="#6effff" stroke-width="0"/>
          <path d="M296.37,107.04l1.1,4.39c-2.18.36-4.36.75-6.54,1.18l-1.21-4.37c2.21-.43,4.42-.83,6.64-1.19" fill="#72ffff" stroke-width="0"/>
          <path d="M289.74,108.23l1.21,4.37c-2.19.43-4.38.89-6.56,1.38l-1.31-4.35c2.22-.5,4.44-.97,6.66-1.4" fill="#7ff" stroke-width="0"/>
          <path d="M283.07,109.63l1.31,4.35c-2.18.49-4.36,1.02-6.53,1.57l-1.41-4.33c2.2-.56,4.41-1.1,6.63-1.6" fill="#7affff" stroke-width="0"/>
          <path d="M276.44,111.23l1.41,4.33c-2.31.59-4.61,1.22-6.9,1.88l-1.51-4.3c2.33-.67,4.66-1.31,7.01-1.91" fill="#7effff" stroke-width="0"/>
          <path d="M269.44,113.14l1.51,4.3c-2.41.7-4.82,1.43-7.21,2.21l-1.62-4.26c2.43-.79,4.87-1.54,7.32-2.24" fill="#82ffff" stroke-width="0"/>
          <path d="M262.11,115.38l1.62,4.26c-2.54.82-5.06,1.69-7.58,2.6l-1.74-4.22c2.55-.92,5.12-1.8,7.69-2.64" fill="#85ffff" stroke-width="0"/>
          <path d="M254.42,118.02l1.74,4.22c-3,1.08-5.98,2.23-8.95,3.43l-1.88-4.17c3.01-1.22,6.04-2.39,9.09-3.49" fill="#89ffff" stroke-width="0"/>
          <path d="M245.34,121.51l1.88,4.17c-3.77,1.54-7.52,3.17-11.23,4.9l-2.05-4.09c3.77-1.76,7.57-3.42,11.41-4.97" fill="#8cffff" stroke-width="0"/>
          <path d="M233.93,126.48l2.05,4.09c-14.72,6.86-28.94,15.23-42.48,25.02l-2.71-3.71c13.75-9.94,28.18-18.44,43.13-25.41" fill="#90ffff" stroke-width="0"/>
          <path d="M190.79,151.89l2.71,3.71c-3.28,2.37-6.52,4.83-9.72,7.36l-2.86-3.59c3.25-2.58,6.54-5.07,9.87-7.48" fill="#8cffff" stroke-width="0"/>
          <path d="M180.93,159.36l2.86,3.59c-2.34,1.85-4.65,3.75-6.94,5.69l-2.97-3.5c2.32-1.97,4.67-3.89,7.05-5.78" fill="#89ffff" stroke-width="0"/>
          <path d="M173.88,165.14l2.97,3.5c-1.98,1.68-3.95,3.39-5.9,5.14l-3.06-3.42c1.98-1.77,3.97-3.51,5.99-5.22" fill="#85ffff" stroke-width="0"/>
          <path d="M167.89,170.35l3.06,3.42c-1.76,1.58-3.51,3.19-5.25,4.82l-3.14-3.35c1.76-1.66,3.54-3.29,5.33-4.89" fill="#82ffff" stroke-width="0"/>
          <path d="M162.56,175.25l3.14,3.35c-1.58,1.49-3.16,3-4.71,4.54l-3.22-3.28c1.58-1.56,3.18-3.09,4.79-4.61" fill="#7effff" stroke-width="0"/>
          <path d="M157.78,179.86l3.22,3.28c-1.5,1.48-3,2.98-4.47,4.5l-3.29-3.21c1.5-1.54,3.02-3.07,4.54-4.57" fill="#7affff" stroke-width="0"/>
          <path d="M153.24,184.43l3.29,3.21c-1.44,1.48-2.86,2.98-4.28,4.49l-3.35-3.14c1.43-1.54,2.88-3.06,4.34-4.56" fill="#7ff" stroke-width="0"/>
          <path d="M148.89,188.99l3.35,3.14c-1.33,1.42-2.64,2.87-3.95,4.32l-3.41-3.07c1.33-1.48,2.66-2.94,4.01-4.39" fill="#72ffff" stroke-width="0"/>
          <path d="M144.88,193.38l3.41,3.07c-1.28,1.43-2.56,2.88-3.82,4.35l-3.47-3.01c1.28-1.49,2.57-2.96,3.88-4.41" fill="#6effff" stroke-width="0"/>
          <path d="M141.01,197.79l3.47,3.01c-1.24,1.44-2.48,2.9-3.7,4.38l-3.53-2.94c1.24-1.5,2.49-2.98,3.76-4.44" fill="#6affff" stroke-width="0"/>
          <path d="M137.25,202.24l3.53,2.94c-.31.37-.62.75-.93,1.12-.9,1.09-1.78,2.19-2.67,3.29l-3.58-2.87c.89-1.12,1.8-2.23,2.71-3.34.31-.38.63-.76.94-1.14" fill="#65ffff" stroke-width="0"/>
          <path d="M133.6,206.72l3.58,2.87c-1.18,1.48-2.34,2.96-3.49,4.46l-3.64-2.8c1.17-1.52,2.35-3.03,3.54-4.52" fill="#61ffff" stroke-width="0"/>
          <path d="M130.06,211.24l3.64,2.8c-1.15,1.5-2.29,3-3.4,4.52l-3.69-2.73c1.14-1.54,2.29-3.07,3.46-4.59" fill="#5cffff" stroke-width="0"/>
          <path d="M126.6,215.83l3.69,2.73c-1.12,1.52-2.23,3.04-3.32,4.58l-3.74-2.66c1.11-1.56,2.23-3.11,3.37-4.65" fill="#57ffff" stroke-width="0"/>
          <path d="M123.23,220.48l3.74,2.66c-1.11,1.56-2.2,3.12-3.27,4.7l-3.79-2.59c1.09-1.6,2.2-3.19,3.32-4.77" fill="#51ffff" stroke-width="0"/>
          <path d="M119.9,225.25l3.79,2.59c-1.09,1.59-2.16,3.19-3.21,4.8l-3.84-2.52c1.07-1.63,2.16-3.26,3.26-4.87" fill="#4bffff" stroke-width="0"/>
          <path d="M116.64,230.12l3.84,2.52c-1.07,1.64-2.13,3.29-3.17,4.94l-3.89-2.44c1.06-1.68,2.13-3.36,3.22-5.02" fill="#4ff" stroke-width="0"/>
          <path d="M113.42,235.14l3.89,2.44c-1.07,1.7-2.12,3.41-3.15,5.12l-3.94-2.36c1.05-1.74,2.11-3.48,3.2-5.2" fill="#3dffff" stroke-width="0"/>
          <path d="M110.23,240.35l3.94,2.36c-1.05,1.75-2.08,3.5-3.09,5.26l-3.99-2.28c1.03-1.79,2.07-3.57,3.14-5.34" fill="#35ffff" stroke-width="0"/>
          <path d="M107.09,245.69l3.99,2.28c-1.08,1.88-2.13,3.77-3.17,5.66l-4.03-2.19c1.05-1.93,2.12-3.84,3.22-5.75" fill="#2bffff" stroke-width="0"/>
          <path d="M103.87,251.44l4.03,2.19c-1.06,1.95-2.1,3.91-3.12,5.88l-4.08-2.1c1.03-2,2.09-3.99,3.17-5.97" fill="#1fffff" stroke-width="0"/>
          <path d="M100.7,257.41l4.08,2.1c-1.06,2.04-2.09,4.1-3.09,6.16l-4.13-2.01c1.02-2.09,2.07-4.18,3.14-6.25" fill="aqua" stroke-width="0"/>
          <path d="M97.56,263.67l4.13,2.01c-1.07,2.2-2.12,4.41-3.13,6.63l-4.18-1.9c1.03-2.25,2.09-4.5,3.18-6.73" fill="#00fafa" stroke-width="0"/>
          <path d="M94.38,270.39l4.18,1.9c-1.08,2.36-2.13,4.73-3.15,7.11l-4.23-1.79c1.03-2.42,2.1-4.83,3.2-7.22" fill="#00f5f5" stroke-width="0"/>
          <path d="M91.18,277.62l4.23,1.79c-1.09,2.55-2.14,5.12-3.16,7.69l-4.28-1.67c1.03-2.62,2.1-5.22,3.21-7.81" fill="#00f0f0" stroke-width="0"/>
          <path d="M87.98,285.43l4.28,1.67c-1.09,2.76-2.13,5.54-3.14,8.33l-4.33-1.54c1.02-2.83,2.08-5.65,3.19-8.46" fill="#00ebeb" stroke-width="0"/>
          <path d="M84.79,293.89l4.33,1.54c-1.1,3.05-2.14,6.12-3.14,9.2l-4.37-1.4c1.01-3.13,2.07-6.24,3.19-9.34" fill="#00e6e6" stroke-width="0"/>
          <path d="M81.6,303.23l4.37,1.4c-1.1,3.41-2.14,6.84-3.11,10.28l-4.42-1.24c.99-3.5,2.04-6.98,3.16-10.44" fill="#00e0e0" stroke-width="0"/>
          <path d="M78.44,313.67l4.42,1.24c-1.09,3.86-2.1,7.73-3.03,11.63l-4.47-1.06c.94-3.95,1.97-7.89,3.08-11.81" fill="#00dbdb" stroke-width="0"/>
          <path d="M75.37,325.48l4.47,1.06c-1.04,4.37-1.98,8.75-2.81,13.16l-4.51-.86c.85-4.47,1.8-8.93,2.86-13.36" fill="#00d6d6" stroke-width="0"/>
          <path d="M72.51,338.84l4.51.86c-.95,5.02-1.77,10.06-2.45,15.11l-4.55-.63c.69-5.13,1.52-10.25,2.49-15.35" fill="#00d1d1" stroke-width="0"/>
          <path d="M70.02,354.18l4.55.63c-.78,5.79-1.38,11.6-1.79,17.43l-4.58-.36c.42-5.92,1.03-11.82,1.82-17.7" fill="#0cc" stroke-width="0"/>
          <path d="M68.2,371.88l4.58.36c-.46,6.43-.7,12.87-.71,19.32l-4.59-.06c.01-6.55.25-13.09.72-19.61" fill="#00c7c7" stroke-width="0"/>
        </g>
      </g>
    </g>
    <g>
      <path d="M667.58,67.52c58.61-8.24,113.65,8.65,155.02,47.56,41.36,38.92,64.06,95.17,63.95,158.43l-1.17,631.6-804.58,113.08,1.16-623.68c.12-65.38,23.82-130.14,66.73-182.39,42.92-52.24,99.89-85.7,160.47-94.22l358.43-50.37Z" fill="#0b0216" stroke-width="0"/>
      <g isolation="isolate">
        <g clip-path="url(#clippath-20)">
          <g>
            <path d="M231.69,128.48c-3.65.51-7.36,1.26-11.12,2.25-9.98,2.63-20.72,7.11-31.86,14.18-8.36,5.3-16.95,12.04-25.66,20.49-13.08,12.67-26.45,29.16-39.99,50.42-13.53,21.28-27.24,47.35-41.02,79.33l21.05,9.21c11.74-27.26,23.28-49.68,34.43-68.04,8.36-13.77,16.49-25.26,24.32-34.81,11.75-14.34,22.79-24.33,32.99-31.34,10.21-7,19.6-11.04,28.29-13.34,2.91-.77,5.76-1.34,8.54-1.73,8.97-1.25,17.37-.68,25.63,1.33,7.22,1.77,14.32,4.65,21.4,8.43,12.38,6.61,24.64,15.98,37.14,26.36,9.38,7.77,18.92,16.08,28.86,24.12,14.92,12.04,30.75,23.5,48.63,31.29,8.94,3.9,18.4,6.85,28.44,8.43,10.03,1.58,20.64,1.78,31.83.21h.08c2.4-.35,4.82-.76,7.26-1.26h0c10.64-2.17,20.39-5.65,29.33-10.14,7.84-3.94,15.05-8.63,21.77-13.84,11.75-9.11,21.95-19.69,31.63-30.6,7.26-8.2,14.25-16.59,21.37-24.84,10.69-12.38,21.69-24.4,34.34-35.12,12.66-10.72,26.96-20.22,44.59-27.59,13.27-5.56,26.58-9.1,39.89-10.98,16.92-2.38,33.86-2.03,50.6.46,25.11,3.73,49.77,12.32,73.07,23.59,23.3,11.27,45.23,25.2,64.92,39.48l14.47-23.15c-27.18-19.7-58.73-39-93.07-52.17-17.17-6.58-35.05-11.64-53.43-14.37-18.4-2.74-37.31-3.18-56.5-.48-15.09,2.12-30.35,6.18-45.57,12.56-11.75,4.9-22.36,10.72-32.02,17.15-16.91,11.24-30.87,24.33-43.17,37.48-9.23,9.88-17.54,19.8-25.52,29.15-5.99,7.02-11.79,13.71-17.62,19.85-8.76,9.23-17.55,17.2-27.23,23.5-9.69,6.3-20.28,11.03-33.13,13.67h0c-2.01.41-3.99.75-5.93,1.03-10.58,1.49-20.38,1.04-29.79-.87-8.22-1.68-16.12-4.5-23.83-8.2-13.49-6.48-26.4-15.7-39.14-25.95-9.56-7.68-19.03-15.93-28.66-23.94-7.24-6.01-14.56-11.89-22.13-17.27-11.35-8.07-23.24-15.08-36.21-19.6-6.49-2.26-13.24-3.88-20.29-4.67-7.04-.79-14.37-.74-21.97.33" fill="#d8801a" stroke-width="0"/>
            <path d="M231.51,230.05c-3.65.51-7.36,1.26-11.13,2.25-9.98,2.63-20.72,7.11-31.86,14.19-8.36,5.3-16.95,12.04-25.66,20.49-13.08,12.67-26.45,29.16-39.99,50.42-13.53,21.28-27.24,47.35-41.02,79.33l21.05,9.21c11.74-27.26,23.28-49.68,34.43-68.04,8.36-13.77,16.49-25.26,24.32-34.81,11.75-14.34,22.79-24.33,32.99-31.34,10.21-7,19.6-11.04,28.29-13.34,2.91-.77,5.76-1.34,8.54-1.74,8.96-1.25,17.36-.68,25.62,1.33,7.22,1.77,14.32,4.65,21.4,8.43,12.38,6.61,24.64,15.99,37.14,26.36,9.38,7.77,18.92,16.08,28.86,24.12,14.92,12.04,30.75,23.51,48.63,31.3,8.94,3.89,18.4,6.85,28.44,8.43,10.05,1.58,20.69,1.78,31.91.2,2.4-.34,4.82-.76,7.26-1.25h0c10.64-2.18,20.39-5.65,29.33-10.15,7.84-3.93,15.05-8.63,21.77-13.83,11.75-9.11,21.95-19.69,31.63-30.61,7.26-8.2,14.25-16.59,21.37-24.84,10.69-12.38,21.69-24.39,34.34-35.11,12.66-10.73,26.96-20.22,44.59-27.6,13.27-5.55,26.58-9.1,39.89-10.98,16.92-2.38,33.86-2.03,50.6.46,25.11,3.73,49.77,12.32,73.07,23.6,23.3,11.26,45.23,25.19,64.92,39.47l14.47-23.15c-27.18-19.7-58.73-39-93.07-52.17-17.17-6.58-35.05-11.63-53.43-14.37-18.4-2.74-37.31-3.18-56.5-.48-15.09,2.12-30.35,6.18-45.57,12.56-11.75,4.91-22.36,10.72-32.02,17.15-16.91,11.24-30.87,24.33-43.17,37.49-9.23,9.87-17.54,19.79-25.52,29.14-5.99,7.02-11.79,13.71-17.62,19.85-8.76,9.23-17.55,17.2-27.23,23.5-9.69,6.29-20.28,11.02-33.13,13.67h0c-2.01.4-3.99.74-5.93,1.02-10.58,1.49-20.38,1.04-29.79-.87-8.22-1.68-16.12-4.5-23.83-8.2-13.49-6.48-26.4-15.69-39.14-25.95-9.56-7.68-19.03-15.92-28.66-23.94-7.24-6.01-14.56-11.88-22.13-17.27-11.35-8.07-23.24-15.08-36.21-19.6-6.49-2.25-13.24-3.88-20.28-4.67-7.05-.79-14.38-.74-21.97.33" fill="#00dfdf" stroke-width="0"/>
            <path d="M231.32,331.61c-3.65.51-7.36,1.27-11.13,2.26-9.98,2.62-20.72,7.11-31.86,14.18-8.36,5.3-16.95,12.04-25.66,20.49-13.08,12.67-26.45,29.16-39.99,50.43-13.53,21.27-27.24,47.35-41.02,79.32l21.05,9.21c11.74-27.26,23.28-49.68,34.43-68.04,8.36-13.77,16.49-25.25,24.32-34.81,11.75-14.34,22.79-24.33,32.99-31.34,10.21-7,19.6-11.04,28.29-13.34,2.91-.77,5.76-1.34,8.54-1.73,8.96-1.26,17.36-.69,25.62,1.33,7.22,1.76,14.32,4.65,21.4,8.43,12.38,6.62,24.64,15.99,37.14,26.36,9.38,7.77,18.92,16.09,28.86,24.12,14.92,12.04,30.75,23.51,48.63,31.3,8.94,3.89,18.4,6.85,28.44,8.43,10.05,1.58,20.69,1.77,31.91.2,2.4-.34,4.83-.76,7.26-1.25h0c10.64-2.18,20.39-5.65,29.33-10.15,7.84-3.93,15.05-8.63,21.77-13.83,11.75-9.11,21.95-19.69,31.63-30.61,7.26-8.2,14.25-16.59,21.37-24.83,10.69-12.38,21.69-24.4,34.34-35.12,12.66-10.73,26.96-20.22,44.59-27.6,13.27-5.55,26.58-9.1,39.89-10.98,16.92-2.38,33.86-2.03,50.6.46,25.11,3.74,49.77,12.32,73.07,23.6,23.3,11.27,45.23,25.19,64.92,39.47l14.47-23.15c-27.19-19.69-58.73-39-93.07-52.17-17.17-6.58-35.05-11.63-53.43-14.37-18.4-2.74-37.31-3.17-56.5-.47-15.09,2.11-30.35,6.18-45.57,12.55-11.75,4.91-22.36,10.72-32.02,17.16-16.91,11.24-30.87,24.32-43.17,37.48-9.23,9.87-17.54,19.79-25.52,29.15-5.99,7.01-11.79,13.7-17.62,19.84-8.76,9.23-17.55,17.2-27.23,23.5-9.69,6.3-20.28,11.02-33.13,13.67h0c-2.01.41-3.99.74-5.93,1.03-10.58,1.48-20.38,1.04-29.79-.88-8.22-1.67-16.12-4.49-23.83-8.2-13.49-6.47-26.39-15.69-39.14-25.94-9.56-7.68-19.03-15.93-28.66-23.95-7.24-6.01-14.56-11.88-22.13-17.27-11.35-8.07-23.24-15.08-36.21-19.6-6.49-2.25-13.24-3.88-20.28-4.67-7.05-.79-14.38-.74-21.97.33" fill="#a82227" stroke-width="0"/>
            <path d="M230.94,433.21c-3.59.5-7.24,1.25-10.94,2.23-9.98,2.62-20.72,7.11-31.86,14.18-8.36,5.31-16.95,12.05-25.66,20.49-13.08,12.67-26.45,29.16-39.99,50.43-13.53,21.28-27.24,47.35-41.02,79.32l21.05,9.21c11.74-27.26,23.28-49.68,34.43-68.04,8.36-13.77,16.49-25.25,24.32-34.81,11.75-14.34,22.79-24.33,32.99-31.33,10.21-7,19.6-11.05,28.29-13.35,2.91-.77,5.76-1.34,8.54-1.73,8.97-1.26,17.37-.68,25.63,1.33,7.22,1.76,14.32,4.65,21.4,8.43,12.38,6.61,24.64,15.98,37.14,26.35,9.38,7.77,18.92,16.09,28.86,24.13,14.92,12.04,30.75,23.5,48.63,31.29,8.94,3.89,18.4,6.85,28.44,8.43,10.05,1.58,20.69,1.77,31.91.2,2.4-.34,4.82-.76,7.26-1.25h0c10.64-2.18,20.39-5.65,29.33-10.15,7.84-3.93,15.05-8.63,21.77-13.83,11.75-9.11,21.95-19.69,31.63-30.61,7.26-8.19,14.25-16.58,21.37-24.83,10.69-12.38,21.69-24.4,34.34-35.12,12.66-10.73,26.96-20.22,44.59-27.6,13.27-5.55,26.58-9.1,39.89-10.98,16.92-2.38,33.86-2.03,50.6.46,25.11,3.74,49.77,12.33,73.07,23.6,23.3,11.27,45.23,25.19,64.92,39.47l14.47-23.15c-27.18-19.69-58.73-39-93.07-52.17-17.17-6.58-35.05-11.63-53.43-14.37-18.4-2.74-37.31-3.17-56.5-.47-15.09,2.12-30.35,6.18-45.57,12.55-11.75,4.91-22.36,10.73-32.02,17.15-16.91,11.24-30.87,24.32-43.17,37.48-9.23,9.88-17.54,19.8-25.52,29.15-5.99,7.01-11.79,13.7-17.62,19.85-8.76,9.22-17.55,17.19-27.23,23.5-9.69,6.3-20.28,11.03-33.13,13.67h0c-2.01.41-3.99.75-5.93,1.02-10.58,1.48-20.38,1.04-29.79-.88-8.22-1.67-16.12-4.49-23.83-8.2-13.49-6.48-26.4-15.7-39.14-25.95-9.56-7.68-19.03-15.93-28.66-23.94-7.24-6.01-14.56-11.89-22.13-17.27-11.35-8.08-23.24-15.09-36.21-19.61-6.49-2.25-13.24-3.88-20.29-4.67-7.01-.78-14.31-.74-21.88.33h-.09c-.06.02-.12.03-.18.04" fill="#d8801a" stroke-width="0"/>
            <path d="M230.94,534.75c-3.65.51-7.36,1.26-11.13,2.25-9.98,2.63-20.72,7.11-31.86,14.19-8.36,5.3-16.95,12.04-25.66,20.49-13.08,12.67-26.45,29.16-39.99,50.42-13.53,21.28-27.24,47.35-41.02,79.33l21.05,9.2c11.74-27.26,23.28-49.67,34.43-68.04,8.36-13.77,16.49-25.25,24.32-34.8,11.75-14.34,22.79-24.33,32.99-31.34,10.21-7,19.6-11.05,28.29-13.34,2.91-.77,5.76-1.34,8.54-1.74,8.96-1.25,17.36-.68,25.62,1.33,7.22,1.77,14.32,4.65,21.4,8.43,12.38,6.61,24.64,15.98,37.14,26.35,9.38,7.77,18.92,16.09,28.86,24.13,14.92,12.04,30.75,23.5,48.63,31.29,8.94,3.9,18.4,6.85,28.44,8.43s20.69,1.77,31.91.2c2.4-.34,4.82-.75,7.26-1.25h0c10.64-2.18,20.39-5.65,29.33-10.15,7.84-3.93,15.05-8.63,21.77-13.83,11.75-9.11,21.95-19.69,31.63-30.6,7.26-8.2,14.25-16.59,21.37-24.84,10.69-12.38,21.69-24.4,34.34-35.12,12.66-10.72,26.96-20.22,44.59-27.6,13.27-5.55,26.58-9.1,39.89-10.98,16.92-2.38,33.86-2.03,50.6.47,25.11,3.73,49.77,12.32,73.07,23.59,23.3,11.27,45.23,25.19,64.92,39.48l14.47-23.16c-27.18-19.69-58.73-39-93.07-52.17-17.17-6.58-35.05-11.63-53.43-14.37-18.4-2.74-37.31-3.18-56.5-.48-15.09,2.12-30.35,6.18-45.57,12.55-11.75,4.91-22.36,10.73-32.02,17.15-16.91,11.24-30.87,24.33-43.17,37.48-9.23,9.88-17.54,19.8-25.52,29.15-5.99,7.01-11.79,13.7-17.62,19.85-8.76,9.23-17.55,17.19-27.23,23.5-9.69,6.3-20.28,11.03-33.13,13.67h0c-2.01.41-3.99.75-5.93,1.02-10.58,1.48-20.38,1.04-29.79-.88-8.22-1.67-16.12-4.49-23.83-8.2-13.49-6.48-26.4-15.7-39.14-25.95-9.56-7.68-19.03-15.93-28.66-23.94-7.24-6.01-14.56-11.89-22.13-17.27-11.35-8.07-23.24-15.08-36.21-19.6-6.49-2.26-13.24-3.88-20.28-4.67-7.05-.79-14.38-.74-21.97.33" fill="#0063a4" stroke-width="0"/>
            <path d="M230.76,636.31c-3.65.51-7.36,1.26-11.13,2.25-9.98,2.63-20.72,7.11-31.86,14.19-8.36,5.3-16.95,12.04-25.66,20.49-13.08,12.67-26.45,29.16-39.99,50.42-13.53,21.28-27.24,47.35-41.02,79.33l21.05,9.21c11.74-27.26,23.28-49.68,34.43-68.04,8.36-13.77,16.49-25.26,24.32-34.81,11.75-14.34,22.79-24.33,32.99-31.34,10.21-7,19.6-11.04,28.29-13.34,2.91-.77,5.76-1.34,8.54-1.74,8.96-1.25,17.36-.68,25.62,1.33,7.22,1.77,14.32,4.65,21.4,8.43,12.38,6.61,24.64,15.98,37.14,26.36,9.38,7.77,18.92,16.08,28.86,24.12,14.92,12.04,30.75,23.5,48.63,31.3,8.94,3.89,18.4,6.84,28.44,8.43,10.03,1.58,20.64,1.78,31.83.21.03,0,.05,0,.08-.01.11-.01.22-.03.33-.05,2.29-.32,4.61-.73,6.93-1.21h0c10.64-2.17,20.39-5.65,29.33-10.14,7.84-3.94,15.05-8.63,21.77-13.83,11.75-9.11,21.95-19.7,31.63-30.61,7.26-8.2,14.25-16.59,21.37-24.84,10.69-12.38,21.69-24.39,34.34-35.11,12.66-10.73,26.96-20.22,44.59-27.6,13.27-5.56,26.58-9.1,39.89-10.98,16.92-2.38,33.86-2.03,50.6.46,25.11,3.73,49.77,12.32,73.07,23.59,23.3,11.27,45.23,25.2,64.92,39.48l14.47-23.15c-27.19-19.7-58.73-39-93.07-52.17-17.17-6.58-35.05-11.64-53.43-14.37-18.4-2.74-37.31-3.18-56.5-.48-15.09,2.12-30.35,6.18-45.57,12.56-11.75,4.9-22.36,10.72-32.02,17.15-16.91,11.24-30.87,24.33-43.17,37.49-9.23,9.87-17.54,19.79-25.52,29.14-5.99,7.02-11.79,13.71-17.62,19.85-8.76,9.23-17.55,17.2-27.23,23.5-9.69,6.3-20.28,11.03-33.13,13.67h0c-2.01.41-3.99.75-5.93,1.03-10.58,1.49-20.38,1.04-29.79-.87-8.22-1.68-16.12-4.5-23.83-8.2-13.49-6.48-26.39-15.7-39.14-25.95-9.56-7.68-19.03-15.93-28.66-23.94-7.24-6.01-14.56-11.88-22.13-17.27-11.35-8.07-23.24-15.08-36.21-19.6-6.49-2.26-13.24-3.88-20.28-4.67-7.05-.79-14.38-.74-21.97.33" fill="#00dfdf" stroke-width="0"/>
            <path d="M230.56,737.88c-3.65.51-7.36,1.26-11.12,2.26-9.98,2.62-20.72,7.11-31.86,14.18-8.36,5.3-16.95,12.04-25.66,20.49-13.08,12.67-26.45,29.16-39.99,50.42-13.53,21.28-27.24,47.35-41.02,79.33l21.05,9.21c11.74-27.26,23.28-49.68,34.43-68.04,8.36-13.77,16.49-25.26,24.32-34.81,11.75-14.34,22.79-24.33,32.99-31.34,10.21-7,19.6-11.04,28.29-13.34,2.91-.77,5.76-1.34,8.54-1.73,8.97-1.25,17.37-.68,25.63,1.33,7.22,1.77,14.32,4.65,21.4,8.43,12.38,6.61,24.64,15.99,37.14,26.36,9.38,7.77,18.92,16.09,28.86,24.12,14.92,12.04,30.75,23.51,48.63,31.3,8.94,3.89,18.4,6.85,28.44,8.43,10.05,1.58,20.69,1.78,31.91.2,2.4-.34,4.82-.76,7.26-1.25h0c10.64-2.18,20.39-5.65,29.33-10.15,7.84-3.93,15.05-8.63,21.77-13.83,11.75-9.11,21.95-19.69,31.63-30.61,7.26-8.2,14.25-16.59,21.37-24.84,10.69-12.37,21.69-24.39,34.34-35.11,12.66-10.73,26.96-20.22,44.59-27.6,13.27-5.55,26.58-9.1,39.89-10.98,16.92-2.38,33.86-2.03,50.6.46,25.11,3.73,49.77,12.32,73.07,23.6,23.3,11.27,45.23,25.19,64.92,39.47l14.47-23.15c-27.18-19.7-58.73-39-93.07-52.17-17.17-6.58-35.05-11.63-53.43-14.37-18.4-2.74-37.31-3.17-56.5-.47-15.09,2.11-30.35,6.17-45.57,12.55-11.75,4.91-22.36,10.72-32.02,17.15-16.91,11.24-30.87,24.32-43.17,37.48-9.23,9.87-17.54,19.79-25.52,29.15-5.99,7.01-11.79,13.7-17.62,19.84-8.76,9.23-17.55,17.2-27.23,23.5-9.69,6.3-20.28,11.02-33.13,13.67h0c-2.01.41-3.99.74-5.93,1.02-10.58,1.49-20.38,1.04-29.79-.87-8.22-1.68-16.12-4.49-23.83-8.2-13.49-6.48-26.4-15.69-39.14-25.95-9.56-7.68-19.03-15.92-28.66-23.94-7.24-6.01-14.56-11.88-22.13-17.27-11.35-8.07-23.24-15.08-36.21-19.6-6.49-2.25-13.24-3.88-20.29-4.67-7.04-.79-14.37-.74-21.97.33" fill="#a82227" stroke-width="0"/>
            <path d="M230.38,839.44c-3.65.51-7.36,1.27-11.13,2.26-9.98,2.62-20.72,7.11-31.86,14.18-8.36,5.31-16.95,12.05-25.66,20.49-13.08,12.67-26.45,29.16-39.99,50.43-13.53,21.27-27.24,47.35-41.02,79.32l21.05,9.21c11.74-27.26,23.28-49.67,34.43-68.04,8.36-13.77,16.49-25.25,24.32-34.81,11.75-14.34,22.79-24.33,32.99-31.34,10.21-7,19.6-11.04,28.29-13.34,2.91-.77,5.76-1.34,8.54-1.73,8.96-1.26,17.36-.68,25.62,1.33,7.22,1.76,14.32,4.65,21.4,8.43,12.38,6.61,24.64,15.98,37.14,26.35,9.38,7.77,18.92,16.09,28.86,24.13,14.92,12.04,30.75,23.5,48.63,31.29,8.94,3.89,18.4,6.85,28.44,8.43,10.05,1.58,20.69,1.77,31.91.2,2.4-.34,4.82-.76,7.26-1.25h0c10.64-2.18,20.39-5.65,29.33-10.15,7.84-3.93,15.05-8.63,21.77-13.83,11.75-9.11,21.95-19.69,31.63-30.61,7.26-8.2,14.25-16.59,21.37-24.83,10.69-12.38,21.69-24.4,34.34-35.12,12.66-10.73,26.96-20.22,44.59-27.6,13.27-5.55,26.58-9.1,39.89-10.98,16.92-2.38,33.86-2.03,50.6.46,25.11,3.74,49.77,12.32,73.07,23.6,23.3,11.27,45.23,25.19,64.92,39.47l14.47-23.15c-27.18-19.69-58.73-39-93.07-52.17-17.17-6.58-35.05-11.63-53.43-14.37-18.4-2.74-37.31-3.17-56.5-.47-15.09,2.12-30.35,6.18-45.57,12.55-11.75,4.91-22.36,10.72-32.02,17.16-16.91,11.24-30.87,24.32-43.17,37.48-9.23,9.88-17.54,19.79-25.52,29.15-5.99,7.01-11.79,13.7-17.62,19.85-8.76,9.22-17.55,17.19-27.23,23.5-9.69,6.3-20.28,11.02-33.13,13.67h0c-2.01.41-3.99.75-5.93,1.03-10.58,1.48-20.38,1.04-29.79-.88-8.22-1.67-16.12-4.49-23.83-8.2-13.49-6.47-26.4-15.69-39.14-25.94-9.56-7.68-19.03-15.93-28.66-23.95-7.24-6.01-14.56-11.88-22.13-17.26-11.35-8.08-23.24-15.09-36.21-19.61-6.49-2.25-13.24-3.88-20.28-4.67-7.05-.78-14.38-.74-21.97.33" fill="#d8801a" stroke-width="0"/>
          </g>
        </g>
      </g>
    </g>
    <g isolation="isolate">
      <g clip-path="url(#clippath-21)">
        <g isolation="isolate">
          <path d="M81.95,394.49l-7.35-4c.06-32.84,6.07-65.53,17.48-96.55l7.35,4c-11.41,31.02-17.42,63.71-17.48,96.55" fill="#07010d" stroke-width="0"/>
          <path d="M99.43,297.94l-7.35-4c4.75-12.91,10.43-25.53,17-37.75l7.35,4c-6.57,12.22-12.25,24.84-17,37.75" fill="#07010e" stroke-width="0"/>
          <path d="M116.43,260.19l-7.35-4c5.53-10.28,11.7-20.28,18.47-29.94l7.35,4c-6.77,9.66-12.94,19.66-18.47,29.94" fill="#07010e" stroke-width="0"/>
          <path d="M134.9,230.25l-7.35-4c4.35-6.2,8.94-12.25,13.79-18.15,2.27-2.76,4.57-5.46,6.91-8.12l7.35,4c-2.34,2.65-4.65,5.36-6.91,8.12-4.84,5.9-9.44,11.95-13.79,18.15" fill="#08010f" stroke-width="0"/>
          <path d="M155.6,203.99l-7.35-4c7.37-8.35,15.12-16.17,23.2-23.44l7.35,4c-8.07,7.27-15.82,15.09-23.2,23.44" fill="#08010f" stroke-width="0"/>
          <path d="M178.8,180.55l-7.35-4c8.71-7.84,17.81-15.04,27.22-21.55l7.35,4c-9.41,6.51-18.5,13.71-27.22,21.55" fill="#080110" stroke-width="0"/>
          <path d="M206.01,159l-7.35-4c11.67-8.08,23.83-15.1,36.37-21.01l7.35,4c-12.54,5.91-24.7,12.93-36.37,21.01" fill="#080110" stroke-width="0"/>
          <path d="M242.38,138l-7.35-4c21.36-10.06,43.81-16.88,66.77-20.1l7.35,4c-22.97,3.23-45.41,10.04-66.77,20.1" fill="#090111" stroke-width="0"/>
        </g>
      </g>
    </g>
    <g isolation="isolate">
      <g clip-path="url(#clippath-22)">
        <g isolation="isolate">
          <path d="M45.37,395.3l-10.15-5.52c.07-37.22,6.88-74.27,19.81-109.44l10.15,5.52c-12.93,35.16-19.74,72.21-19.81,109.44" fill="#008585" stroke-width="0"/>
          <path d="M65.18,285.87l-10.15-5.52c5.38-14.63,11.82-28.94,19.27-42.79l10.15,5.52c-7.45,13.86-13.89,28.16-19.27,42.79" fill="#008a8a" stroke-width="0"/>
          <path d="M84.45,243.07l-10.15-5.52c6.27-11.66,13.26-22.99,20.94-33.94l10.15,5.52c-7.68,10.95-14.67,22.28-20.94,33.94" fill="#008f8f" stroke-width="0"/>
          <path d="M105.39,209.13l-10.15-5.52c4.92-7.02,10.13-13.88,15.62-20.56,2.57-3.13,5.18-6.19,7.83-9.2l10.15,5.52c-2.65,3.01-5.27,6.07-7.83,9.2-5.49,6.68-10.69,13.54-15.62,20.56" fill="#009494" stroke-width="0"/>
          <path d="M128.84,179.38l-10.15-5.52c8.36-9.46,17.13-18.33,26.28-26.56l10.15,5.52c-9.15,8.23-17.93,17.1-26.28,26.56" fill="#099" stroke-width="0"/>
          <path d="M155.12,152.82l-10.15-5.52c9.88-8.89,20.18-17.04,30.85-24.42l10.15,5.52c-10.67,7.38-20.97,15.54-30.85,24.42" fill="#009e9e" stroke-width="0"/>
          <path d="M185.97,128.39l-10.15-5.52c13.23-9.15,27.02-17.12,41.23-23.81l10.15,5.52c-14.21,6.69-28,14.66-41.23,23.81" fill="#00a3a3" stroke-width="0"/>
          <path d="M227.2,104.58l-10.15-5.52c24.22-11.41,49.66-19.13,75.69-22.79l10.15,5.52c-26.03,3.66-51.48,11.38-75.69,22.79" fill="#00a8a8" stroke-width="0"/>
        </g>
      </g>
    </g>
    <g isolation="isolate">
      <g clip-path="url(#clippath-23)">
        <g isolation="isolate">
          <path d="M47.9,394.24l-2.53,1.06c0-3.11.06-6.22.16-9.33l2.53-.93c-.1,3.07-.15,6.13-.16,9.2" fill="#00c7c7" stroke-width="0"/>
          <path d="M48.06,385.04l-2.53.93c.31-9.77,1.09-19.52,2.32-29.22l2.5-.53c-1.21,9.56-1.97,19.18-2.28,28.82" fill="#00c2c2" stroke-width="0"/>
          <path d="M50.34,356.23l-2.5.53c1.29-10.18,3.07-20.3,5.34-30.32l2.42-.11c-2.24,9.89-4,19.87-5.26,29.9" fill="#00bdbd" stroke-width="0"/>
          <path d="M55.6,326.32l-2.42.11c2.43-10.73,5.41-21.36,8.93-31.83l2.3.33c-3.47,10.33-6.41,20.81-8.8,31.39" fill="#00b8b8" stroke-width="0"/>
          <path d="M64.41,294.93l-2.3-.33c3.86-11.49,8.37-22.8,13.51-33.87l2.11.8c-5.07,10.92-9.51,22.07-13.32,33.4" fill="#00b3b3" stroke-width="0"/>
          <path d="M77.73,261.53l-2.11-.8c5.82-12.55,12.45-24.79,19.86-36.63l1.84,1.31c-7.3,11.68-13.84,23.75-19.58,36.12" fill="#00adad" stroke-width="0"/>
          <path d="M97.31,225.41l-1.84-1.31c7.69-12.3,16.21-24.17,25.53-35.52,1.45-1.76,2.91-3.51,4.39-5.23l1.42,1.88c-1.46,1.7-2.9,3.42-4.33,5.16-9.19,11.19-17.6,22.9-25.18,35.03" fill="#00a8a8" stroke-width="0"/>
          <path d="M126.82,185.22l-1.42-1.88c14.49-16.93,30.31-32.03,47.17-45.12l.77,2.5c-16.62,12.9-32.23,27.79-46.52,44.49" fill="#00a3a3" stroke-width="0"/>
          <path d="M173.34,140.72l-.77-2.5c39.11-30.35,83.78-49.89,130.32-56.43l-1.04,3.28c-45.9,6.45-89.96,25.71-128.52,55.65" fill="#009e9e" stroke-width="0"/>
        </g>
      </g>
    </g>
    <path d="M841.52,92.04c46.39,43.64,71.87,106.74,71.73,177.71l-1.23,660.41-857.99,120.58,1.21-652.51c.14-73.08,26.62-145.46,74.59-203.87,47.97-58.4,111.66-95.79,179.36-105.3l358.43-50.37c65.75-9.24,127.49,9.7,173.89,53.34ZM892.48,911.78l1.19-639.28c.12-65.3-23.33-123.41-66.02-163.57-42.7-40.16-99.55-57.61-160.05-49.1l-358.43,50.37c-62.46,8.78-121.25,43.3-165.51,97.17-44.25,53.87-68.7,120.7-68.83,188.11l-1.17,631.37,818.82-115.08" fill="#00dfdf" stroke-width="0"/>
    <g isolation="isolate">
      <g clip-path="url(#clippath-24)">
        <g isolation="isolate">
          <path d="M55.25,398.24l-7.35-4c.07-36.71,6.79-73.24,19.54-107.92l7.35,4c-12.75,34.68-19.47,71.21-19.54,107.92" fill="#008585" stroke-width="0"/>
          <path d="M74.79,290.32l-7.35-4c5.3-14.43,11.65-28.53,19-42.2l7.35,4c-7.35,13.66-13.7,27.77-19,42.2" fill="#008a8a" stroke-width="0"/>
          <path d="M93.79,248.13l-7.35-4c6.18-11.5,13.07-22.68,20.65-33.47l7.35,4c-7.57,10.8-14.46,21.98-20.65,33.47" fill="#008f8f" stroke-width="0"/>
          <path d="M114.44,214.65l-7.35-4c4.86-6.92,9.99-13.69,15.4-20.28,2.53-3.08,5.11-6.11,7.73-9.07l7.35,4c-2.62,2.96-5.19,5.99-7.73,9.07-5.41,6.59-10.55,13.35-15.4,20.28" fill="#009494" stroke-width="0"/>
          <path d="M137.57,185.31l-7.35-4c8.24-9.33,16.9-18.07,25.92-26.19l7.35,4c-9.02,8.12-17.68,16.86-25.92,26.19" fill="#099" stroke-width="0"/>
          <path d="M163.49,159.11l-7.35-4c9.74-8.77,19.9-16.81,30.42-24.08l7.35,4c-10.52,7.28-20.68,15.32-30.42,24.08" fill="#009e9e" stroke-width="0"/>
          <path d="M193.91,135.03l-7.35-4c13.05-9.03,26.64-16.88,40.65-23.48l7.35,4c-14.01,6.6-27.61,14.45-40.65,23.48" fill="#00a3a3" stroke-width="0"/>
          <path d="M234.56,111.55l-7.35-4c23.88-11.25,48.98-18.87,74.65-22.47l7.35,4c-25.67,3.61-50.77,11.22-74.65,22.47" fill="#00a8a8" stroke-width="0"/>
        </g>
      </g>
    </g>
  </g>
</svg>