<?xml version="1.0" encoding="UTF-8"?>
<svg id="iPad" xmlns="http://www.w3.org/2000/svg" viewBox="0 0 899 1080">
  <path d="M898.77,540.94v538.56H.32v-449.18c12.81,30.45,27.67,61.92,44.25,89.44,9.65,16.03,19.87,30.71,30.62,43.07,21.98,25.31,46.11,40.9,71.78,38.37,1.04-.1,2.07-.23,3.09-.4,31.33-4.87,53.48-35.9,74.87-71.32,1.94-3.21,3.87-6.46,5.81-9.72,19.92-33.65,39.84-69.38,66.63-89.44.22-.17.45-.34.67-.5.59-.43,1.17-.85,1.75-1.25,23.44-16.33,45.03-13.44,65.8,1.25,3.04,2.15,6.06,4.55,9.07,7.17,21.43,18.74,42.16,49.13,63.37,82.76,3.81,6.05,7.65,12.2,11.5,18.42,14.84,23.92,30.03,48.7,45.94,71.52,9.36,13.43,18.98,26.18,28.93,37.7,22.03,25.5,45.71,44.96,71.91,52.23.62.18,1.24.34,1.86.5.36.09.73.18,1.1.27,13.81,3.34,29.12,3.75,45.96-.77,9.18-2.46,18.81-6.4,28.91-12.11,22.62-12.82,47.55-34.62,74.87-69.06,2.25-2.83,4.52-5.76,6.8-8.76,18.22-24.03,37.48-53.66,57.78-89.94,3.4-6.07,6.83-12.32,10.29-18.77,11.55-21.53,23.43-45.2,35.64-71.17,12.71-27.05,25.79-56.61,39.23-88.88Z" fill="#000" stroke-width="0"/>
  <path d="M898.77.26v540.68c-13.44,32.27-26.52,61.83-39.23,88.88-12.21,25.97-24.09,49.63-35.64,71.17-3.46,6.45-6.89,12.7-10.29,18.77-20.3,36.27-39.56,65.9-57.78,89.94-2.28,3.01-4.55,5.94-6.8,8.76-27.32,34.45-52.25,56.24-74.87,69.06-10.1,5.72-19.73,9.65-28.91,12.11-16.85,4.52-32.15,4.11-45.96.77-.36-.09-.73-.18-1.1-.27-.62-.16-1.24-.32-1.86-.5-26.2-7.27-49.88-26.73-71.91-52.23-9.95-11.52-19.56-24.27-28.93-37.7-15.91-22.82-31.1-47.6-45.94-71.52-3.85-6.22-7.68-12.37-11.5-18.42-21.22-33.64-41.94-64.02-63.37-82.76-3.01-2.63-6.03-5.03-9.07-7.17-20.78-14.69-42.36-17.58-65.8-1.25-.58.4-1.17.82-1.75,1.25-.22.16-.45.33-.67.5-26.79,20.06-46.72,55.79-66.63,89.44-1.93,3.27-3.87,6.52-5.81,9.72-21.39,35.41-43.54,66.45-74.87,71.32-1.02.17-2.05.3-3.09.4-25.67,2.53-49.79-13.06-71.78-38.37-10.74-12.36-20.97-27.04-30.62-43.07-16.58-27.52-31.45-58.99-44.25-89.44V.26h898.45Z" fill="#dd2c41" stroke-width="0"/>
</svg>