<?xml version="1.0" encoding="UTF-8"?>
<svg id="Layer_3" data-name="Layer 3" xmlns="http://www.w3.org/2000/svg" viewBox="0 0 400 600">
  <path d="M399.9,300.59v299.41H0v-249.72c5.7,16.93,12.32,34.42,19.7,49.72,4.29,8.91,8.85,17.07,13.63,23.94,9.78,14.07,20.52,22.74,31.95,21.33.46-.06.92-.13,1.38-.22,13.94-2.71,23.8-19.96,33.32-39.65.86-1.78,1.72-3.59,2.58-5.41,8.86-18.71,17.73-38.57,29.66-49.72.1-.09.2-.19.3-.28.26-.24.52-.47.78-.69,10.43-9.08,20.04-7.47,29.29.69,1.35,1.19,2.7,2.53,4.04,3.99,9.54,10.42,18.76,27.31,28.21,46.01,1.7,3.36,3.4,6.78,5.12,10.24,6.61,13.3,13.37,27.07,20.45,39.76,4.17,7.47,8.45,14.56,12.88,20.96,9.81,14.18,20.34,24.99,32.01,29.04.27.1.55.19.83.28.16.05.33.1.49.15,6.15,1.86,12.96,2.08,20.46-.43,4.08-1.37,8.37-3.56,12.87-6.73,10.07-7.13,21.17-19.24,33.32-38.39,1-1.57,2.01-3.2,3.03-4.87,8.11-13.36,16.68-29.83,25.72-50,1.51-3.37,3.04-6.85,4.58-10.43,5.14-11.97,10.43-25.13,15.86-39.57,5.66-15.04,11.48-31.47,17.46-49.41Z" style="fill: #000; stroke-width: 0px;"/>
  <path d="M399.9,0v300.59c-5.98,17.94-11.8,34.37-17.46,49.41-5.43,14.44-10.72,27.59-15.86,39.57-1.54,3.58-3.07,7.06-4.58,10.43-9.04,20.17-17.61,36.64-25.72,50-1.02,1.67-2.03,3.3-3.03,4.87-12.16,19.15-23.26,31.27-33.32,38.39-4.49,3.18-8.78,5.37-12.87,6.73-7.5,2.51-14.31,2.28-20.46.43-.16-.05-.33-.1-.49-.15-.28-.09-.55-.18-.83-.28-11.66-4.04-22.2-14.86-32.01-29.04-4.43-6.41-8.71-13.49-12.88-20.96-7.08-12.69-13.84-26.46-20.45-39.76-1.71-3.46-3.42-6.88-5.12-10.24-9.44-18.7-18.67-35.59-28.21-46.01-1.34-1.46-2.68-2.79-4.04-3.99-9.25-8.17-18.85-9.77-29.29-.69-.26.22-.52.46-.78.69-.1.09-.2.18-.3.28-11.93,11.15-20.79,31.02-29.66,49.72-.86,1.82-1.72,3.62-2.58,5.41-9.52,19.69-19.38,36.94-33.32,39.65-.45.09-.91.17-1.38.22-11.43,1.41-22.16-7.26-31.95-21.33-4.78-6.87-9.33-15.03-13.63-23.94C12.32,384.7,5.7,367.21,0,350.28V0h399.9Z" style="fill: #dd2c41; stroke-width: 0px;"/>
</svg>