<?xml version="1.0" encoding="UTF-8"?>
<svg id="Layer_2" data-name="Layer 2" xmlns="http://www.w3.org/2000/svg" viewBox="0 0 1920 1080">
  <path d="M1920,0v541.06c-28.72,32.29-56.67,61.87-83.84,88.94-26.09,25.99-51.48,49.67-76.16,71.22-7.39,6.45-14.72,12.71-21.98,18.78-43.39,36.3-84.54,65.95-123.48,90-4.88,3.01-9.73,5.94-14.54,8.77-58.38,34.47-111.66,56.28-160,69.11-21.58,5.72-42.17,9.66-61.78,12.12-36,4.52-68.71,4.11-98.22.77-.78-.09-1.57-.18-2.35-.27-1.33-.16-2.66-.32-3.98-.5-55.99-7.28-106.59-26.75-153.67-52.27-21.27-11.53-41.81-24.29-61.82-37.73-34.01-22.84-66.46-47.63-98.18-71.57-8.23-6.22-16.42-12.38-24.57-18.43-45.34-33.66-89.63-64.07-135.43-82.82-6.43-2.63-12.88-5.03-19.38-7.18-44.4-14.7-90.52-17.59-140.62-1.25-1.25.4-2.49.82-3.75,1.25-.48.16-.96.33-1.44.5-57.26,20.07-99.84,55.83-142.4,89.5-4.13,3.27-8.26,6.52-12.41,9.73-45.72,35.44-93.05,66.5-160,71.37-2.18.17-4.39.3-6.61.4-54.86,2.53-106.41-13.07-153.39-38.4-22.96-12.37-44.81-27.06-65.43-43.1-35.44-27.54-67.2-59.03-94.57-89.5V0h1920Z" style="fill: #dd2c41; stroke-width: 0px;"/>
  <path d="M1920,541.06v538.94H0v-449.5c27.37,30.47,59.13,61.96,94.57,89.5,20.62,16.04,42.47,30.73,65.43,43.1,46.98,25.33,98.53,40.93,153.39,38.4,2.22-.1,4.43-.23,6.61-.4,66.95-4.87,114.28-35.93,160-71.37,4.15-3.21,8.28-6.46,12.41-9.73,42.56-33.67,85.14-69.43,142.4-89.5.48-.17.96-.34,1.44-.5,1.26-.43,2.5-.85,3.75-1.25,50.1-16.34,96.22-13.45,140.62,1.25,6.5,2.15,12.95,4.55,19.38,7.18,45.8,18.75,90.09,49.16,135.43,82.82,8.15,6.05,16.34,12.21,24.57,18.43,31.72,23.94,64.17,48.73,98.18,71.57,20.01,13.44,40.55,26.2,61.82,37.73,47.08,25.52,97.68,44.99,153.67,52.27,1.32.18,2.65.34,3.98.5.78.09,1.57.18,2.35.27,29.51,3.34,62.22,3.75,98.22-.77,19.61-2.46,40.2-6.4,61.78-12.12,48.34-12.83,101.62-34.64,160-69.11,4.81-2.83,9.66-5.76,14.54-8.77,38.94-24.05,80.09-53.7,123.48-90,7.26-6.07,14.59-12.33,21.98-18.78,24.68-21.55,50.07-45.23,76.16-71.22,27.17-27.07,55.12-56.65,83.84-88.94Z" style="fill: #000; stroke-width: 0px;"/>
</svg>