<?xml version="1.0" encoding="UTF-8"?>
<svg id="Line" xmlns="http://www.w3.org/2000/svg" viewBox="0 0 1920.5 1080.5">
  <path d="M800.25,682.21c17.84,11.31,35.35,24.23,52.82,38.04,35.04,27.68,69.94,58.96,107.18,88.29v1.71h2.18c47.03,36.84,97.84,70.39,157.32,89.5.17.05.33.11.5.16v.34h1.09c45.01,14.24,97.48,21,158.91,14.52,24.61-2.59,50.66-7.31,78.24-14.52,25.88-6.77,53.1-15.73,81.76-27.2,39.66-15.87,82.05-36.53,127.4-62.8,10.7-6.19,21.57-12.7,32.6-19.54,33.08-20.48,67.66-43.87,103.82-70.46,18.32-13.46,37.04-27.74,56.18-42.88,18.8-14.87,37.99-30.56,57.59-47.12,32.64-27.55,66.42-57.5,101.37-90h1.04v540H.25v-450h.85c5.29,7.49,36.42,49.77,90.77,90,19.76,14.64,42.6,29.01,68.38,41.32,44.7,21.37,98.26,36.59,160,36.41,4.13,0,8.3-.08,12.5-.23,66.84-2.42,107.86-34.62,147.5-69.52,3.01-2.65,6.01-5.31,9.01-7.98,38.53-34.24,77.51-69.09,139.49-79.5,3.87-.65,7.7-1.19,11.5-1.63,59.99-6.93,111.25,12.14,160,43.09Z" style="fill: #000; stroke-width: 0px;"/>
  <path d="M1919.21,540.25c-34.95,32.5-68.73,62.45-101.37,90-19.6,16.56-38.79,32.25-57.59,47.12-19.14,15.14-37.86,29.42-56.18,42.88-36.16,26.59-70.74,49.98-103.82,70.46-11.03,6.84-21.9,13.35-32.6,19.54-45.35,26.27-87.74,46.93-127.4,62.8-28.66,11.47-55.88,20.43-81.76,27.2-27.58,7.21-53.63,11.93-78.24,14.52-61.43,6.48-113.9-.28-158.91-14.52-.37-.11-.73-.22-1.09-.34-.17-.05-.33-.11-.5-.16-59.48-19.11-110.29-52.66-157.32-89.5-.73-.57-1.45-1.14-2.18-1.71-37.24-29.33-72.14-60.61-107.18-88.29-17.47-13.81-34.98-26.73-52.82-38.04-48.75-30.95-100.01-50.02-160-43.09-3.8.44-7.63.98-11.5,1.63-61.98,10.41-100.96,45.26-139.49,79.5-3,2.67-6,5.33-9.01,7.98-39.64,34.9-80.66,67.1-147.5,69.52-4.2.15-8.37.23-12.5.23-61.74.18-115.3-15.04-160-36.41-25.78-12.31-48.62-26.68-68.38-41.32-54.35-40.23-85.48-82.51-90.77-90H.25V.25h1920v540h-1.04Z" style="fill: #e900a3; stroke-width: 0px;"/>
</svg>