<?xml version="1.0" encoding="UTF-8"?>
<svg id="Layer_3" data-name="Layer 3" xmlns="http://www.w3.org/2000/svg" xmlns:xlink="http://www.w3.org/1999/xlink" viewBox="0 0 128 32">
  <defs>
    <linearGradient id="linear-gradient" x1="17.53" y1="34.29" x2="78.31" y2="-.85" gradientUnits="userSpaceOnUse">
      <stop offset=".3" stop-color="#0071bc"/>
      <stop offset=".34" stop-color="#0079bf"/>
      <stop offset=".4" stop-color="#0090ca"/>
      <stop offset=".48" stop-color="#00b5dc"/>
      <stop offset=".57" stop-color="#00e9f4"/>
      <stop offset=".61" stop-color="aqua"/>
      <stop offset=".75" stop-color="#00fcfe"/>
      <stop offset=".81" stop-color="#00f5fa"/>
      <stop offset=".85" stop-color="#00e9f4"/>
      <stop offset=".89" stop-color="#00d7ec"/>
      <stop offset=".92" stop-color="#00c1e1"/>
      <stop offset=".95" stop-color="#00a4d4"/>
      <stop offset=".98" stop-color="#0084c4"/>
      <stop offset=".99" stop-color="#0071bc"/>
    </linearGradient>
  </defs>
  <g>
    <path d="M16.6,15.97c0,1.11-.19,2.12-.57,3.05-.38.93-.87,1.69-1.48,2.29-.68.67-1.39,1.16-2.15,1.46-.76.3-1.57.46-2.44.46s-1.65-.15-2.4-.44c-.75-.29-1.43-.72-2.03-1.3-.66-.62-1.2-1.41-1.6-2.35-.41-.95-.61-2.01-.61-3.19,0-1.05.16-2.01.48-2.88.32-.86.8-1.64,1.44-2.33.59-.64,1.3-1.14,2.12-1.49.82-.35,1.68-.53,2.59-.53s1.78.17,2.56.5c.79.33,1.47.79,2.04,1.38.67.68,1.18,1.49,1.52,2.41.35.93.52,1.91.52,2.96ZM14.86,16.13c0-.89-.15-1.76-.45-2.62-.3-.86-.75-1.58-1.36-2.16-.41-.4-.87-.7-1.38-.92s-1.08-.33-1.71-.33-1.19.11-1.72.33-1.01.55-1.44.98c-.55.55-.97,1.22-1.28,2.03-.3.81-.46,1.65-.46,2.52,0,.98.16,1.87.47,2.65.31.78.75,1.44,1.32,1.98.39.38.85.68,1.39.91.53.23,1.1.34,1.71.34s1.18-.11,1.71-.33,1.01-.54,1.44-.96c.51-.49.93-1.12,1.26-1.88.33-.76.49-1.61.49-2.54Z" fill="#000" stroke-width="0"/>
    <path d="M30.91,22l-1.28,1.06c-.15-.16-.68-.75-1.6-1.78-.92-1.03-2.33-2.64-4.23-4.82v-.09c.27-.07.62-.22,1.05-.45.43-.23.79-.48,1.09-.74.25-.23.47-.52.66-.86.19-.34.28-.8.28-1.38,0-.53-.14-.98-.42-1.36-.28-.38-.66-.66-1.14-.84-.4-.15-.81-.24-1.25-.27-.44-.03-.84-.05-1.21-.05-.25,0-.43,0-.56,0s-.23,0-.29,0c-.01,1.3-.02,2.45-.03,3.44s0,1.69,0,2.1c0,.94,0,2.21.02,3.82,0,1.61.02,2.62.03,3.03h-1.69c0-.41.02-1.21.03-2.38.01-1.18.02-2.65.02-4.4v-1.9c0-.92-.02-2.6-.05-5.04.07,0,.41,0,1.02-.02.61-.01,1.18-.02,1.7-.02.59,0,1.17.03,1.73.1.56.07,1.11.22,1.64.44.68.29,1.21.71,1.61,1.27s.59,1.21.59,1.96c0,.97-.3,1.78-.9,2.42-.6.65-1.16,1.12-1.69,1.44v.05c.94,1.09,1.96,2.22,3.08,3.39,1.12,1.16,1.72,1.79,1.8,1.88Z" fill="#000" stroke-width="0"/>
    <path d="M35.34,22.83h-1.69c0-.41.02-1.14.03-2.19s.02-2.56.02-4.53c0-.78,0-1.8-.01-3.07s-.02-2.58-.04-3.94h1.69c-.01.98-.03,2.11-.04,3.41,0,1.3-.02,2.35-.02,3.17,0,2.08,0,3.69.02,4.82.01,1.14.02,1.91.03,2.32Z" fill="#000" stroke-width="0"/>
    <path d="M52.29,15.97c0,1.11-.19,2.12-.57,3.05-.38.93-.87,1.69-1.48,2.29-.68.67-1.39,1.16-2.15,1.46-.76.3-1.57.46-2.44.46s-1.65-.15-2.4-.44c-.75-.29-1.43-.72-2.03-1.3-.66-.62-1.2-1.41-1.6-2.35-.41-.95-.61-2.01-.61-3.19,0-1.05.16-2.01.48-2.88.32-.86.8-1.64,1.44-2.33.59-.64,1.3-1.14,2.12-1.49.82-.35,1.68-.53,2.59-.53s1.78.17,2.56.5c.79.33,1.47.79,2.04,1.38.67.68,1.18,1.49,1.52,2.41.35.93.52,1.91.52,2.96ZM50.55,16.13c0-.89-.15-1.76-.45-2.62-.3-.86-.75-1.58-1.36-2.16-.41-.4-.87-.7-1.38-.92s-1.08-.33-1.71-.33-1.19.11-1.72.33-1.01.55-1.44.98c-.55.55-.97,1.22-1.28,2.03-.3.81-.46,1.65-.46,2.52,0,.98.16,1.87.47,2.65.31.78.75,1.44,1.32,1.98.39.38.85.68,1.39.91.53.23,1.1.34,1.71.34s1.18-.11,1.71-.33,1.01-.54,1.44-.96c.51-.49.93-1.12,1.26-1.88.33-.76.49-1.61.49-2.54Z" fill="#000" stroke-width="0"/>
    <path d="M67.83,9.1c-.01,1.07-.03,2.3-.04,3.68-.01,1.38-.02,2.38-.02,2.98,0,1.94,0,3.48.02,4.63.01,1.15.02,1.76.02,1.83l-1.36.67c-2.06-2.79-3.99-5.31-5.79-7.55-1.79-2.25-2.83-3.54-3.11-3.89h-.02c0,1.84.01,4.09.04,6.76.02,2.67.04,4.21.05,4.62h-1.6c0-.17.02-.78.03-1.83s.02-2.5.02-4.37c0-.75,0-1.73-.01-2.97,0-1.23-.02-2.54-.04-3.92l1.56-.74c.12.16,1.17,1.49,3.14,3.99,1.97,2.5,3.83,4.82,5.57,6.97h.02c0-1.06-.01-2.83-.04-5.32-.03-2.49-.04-4.34-.04-5.54h1.6Z" fill="#000" stroke-width="0"/>
    <path d="M89.29,21.86c0,.66-.19,1.26-.57,1.82-.38.56-.94,1.02-1.69,1.39-.62.3-1.29.52-1.99.67-.71.15-1.6.22-2.69.22-.16,0-.33,0-.5,0-.17,0-.29,0-.37-.02l-.19-1.35h1.03c.59,0,1.19-.03,1.77-.1s1.1-.17,1.53-.32c.63-.21,1.12-.5,1.46-.86.34-.36.52-.82.52-1.38,0-.49-.18-.91-.53-1.25s-.82-.59-1.38-.75c-.24-.07-.51-.12-.8-.15s-.64-.05-1.05-.05c-.15,0-.29,0-.42.01s-.24.01-.34.02l-.18-1.26c1.29-.13,2.26-.41,2.94-.83.67-.42,1.01-.99,1.01-1.71,0-.5-.12-.9-.36-1.21s-.59-.56-1.03-.73c-.31-.12-.68-.21-1.11-.27s-.84-.08-1.25-.08c-.18,0-.36,0-.55,0-.19,0-.31,0-.36,0l.28-1.37h.51c.72,0,1.38.04,1.97.11.6.07,1.19.24,1.77.51.55.25,1,.6,1.33,1.05s.5,1,.5,1.67-.23,1.32-.7,1.88c-.47.56-1.04.97-1.73,1.25v.04c.98.18,1.75.52,2.33,1s.86,1.17.86,2.06Z" fill="#000" stroke-width="0"/>
  </g>
  <g>
    <path d="M16.6,15.97c0,1.11-.19,2.12-.57,3.05-.38.93-.87,1.69-1.48,2.29-.68.67-1.39,1.16-2.15,1.46-.76.3-1.57.46-2.44.46s-1.65-.15-2.4-.44c-.75-.29-1.43-.72-2.03-1.3-.66-.62-1.2-1.41-1.6-2.35-.41-.95-.61-2.01-.61-3.19,0-1.05.16-2.01.48-2.88.32-.86.8-1.64,1.44-2.33.59-.64,1.3-1.14,2.12-1.49.82-.35,1.68-.53,2.59-.53s1.78.17,2.56.5c.79.33,1.47.79,2.04,1.38.67.68,1.18,1.49,1.52,2.41.35.93.52,1.91.52,2.96ZM14.86,16.13c0-.89-.15-1.76-.45-2.62-.3-.86-.75-1.58-1.36-2.16-.41-.4-.87-.7-1.38-.92s-1.08-.33-1.71-.33-1.19.11-1.72.33-1.01.55-1.44.98c-.55.55-.97,1.22-1.28,2.03-.3.81-.46,1.65-.46,2.52,0,.98.16,1.87.47,2.65.31.78.75,1.44,1.32,1.98.39.38.85.68,1.39.91.53.23,1.1.34,1.71.34s1.18-.11,1.71-.33,1.01-.54,1.44-.96c.51-.49.93-1.12,1.26-1.88.33-.76.49-1.61.49-2.54Z" fill="url(#linear-gradient)" stroke-width="0"/>
    <path d="M30.91,22l-1.28,1.06c-.15-.16-.68-.75-1.6-1.78-.92-1.03-2.33-2.64-4.23-4.82v-.09c.27-.07.62-.22,1.05-.45.43-.23.79-.48,1.09-.74.25-.23.47-.52.66-.86.19-.34.28-.8.28-1.38,0-.53-.14-.98-.42-1.36-.28-.38-.66-.66-1.14-.84-.4-.15-.81-.24-1.25-.27-.44-.03-.84-.05-1.21-.05-.25,0-.43,0-.56,0s-.23,0-.29,0c-.01,1.3-.02,2.45-.03,3.44s0,1.69,0,2.1c0,.94,0,2.21.02,3.82,0,1.61.02,2.62.03,3.03h-1.69c0-.41.02-1.21.03-2.38.01-1.18.02-2.65.02-4.4v-1.9c0-.92-.02-2.6-.05-5.04.07,0,.41,0,1.02-.02.61-.01,1.18-.02,1.7-.02.59,0,1.17.03,1.73.1.56.07,1.11.22,1.64.44.68.29,1.21.71,1.61,1.27s.59,1.21.59,1.96c0,.97-.3,1.78-.9,2.42-.6.65-1.16,1.12-1.69,1.44v.05c.94,1.09,1.96,2.22,3.08,3.39,1.12,1.16,1.72,1.79,1.8,1.88Z" fill="url(#linear-gradient)" stroke-width="0"/>
    <path d="M35.34,22.83h-1.69c0-.41.02-1.14.03-2.19s.02-2.56.02-4.53c0-.78,0-1.8-.01-3.07s-.02-2.58-.04-3.94h1.69c-.01.98-.03,2.11-.04,3.41,0,1.3-.02,2.35-.02,3.17,0,2.08,0,3.69.02,4.82.01,1.14.02,1.91.03,2.32Z" fill="url(#linear-gradient)" stroke-width="0"/>
    <path d="M52.29,15.97c0,1.11-.19,2.12-.57,3.05-.38.93-.87,1.69-1.48,2.29-.68.67-1.39,1.16-2.15,1.46-.76.3-1.57.46-2.44.46s-1.65-.15-2.4-.44c-.75-.29-1.43-.72-2.03-1.3-.66-.62-1.2-1.41-1.6-2.35-.41-.95-.61-2.01-.61-3.19,0-1.05.16-2.01.48-2.88.32-.86.8-1.64,1.44-2.33.59-.64,1.3-1.14,2.12-1.49.82-.35,1.68-.53,2.59-.53s1.78.17,2.56.5c.79.33,1.47.79,2.04,1.38.67.68,1.18,1.49,1.52,2.41.35.93.52,1.91.52,2.96ZM50.55,16.13c0-.89-.15-1.76-.45-2.62-.3-.86-.75-1.58-1.36-2.16-.41-.4-.87-.7-1.38-.92s-1.08-.33-1.71-.33-1.19.11-1.72.33-1.01.55-1.44.98c-.55.55-.97,1.22-1.28,2.03-.3.81-.46,1.65-.46,2.52,0,.98.16,1.87.47,2.65.31.78.75,1.44,1.32,1.98.39.38.85.68,1.39.91.53.23,1.1.34,1.71.34s1.18-.11,1.71-.33,1.01-.54,1.44-.96c.51-.49.93-1.12,1.26-1.88.33-.76.49-1.61.49-2.54Z" fill="url(#linear-gradient)" stroke-width="0"/>
    <path d="M67.83,9.1c-.01,1.07-.03,2.3-.04,3.68-.01,1.38-.02,2.38-.02,2.98,0,1.94,0,3.48.02,4.63.01,1.15.02,1.76.02,1.83l-1.36.67c-2.06-2.79-3.99-5.31-5.79-7.55-1.79-2.25-2.83-3.54-3.11-3.89h-.02c0,1.84.01,4.09.04,6.76.02,2.67.04,4.21.05,4.62h-1.6c0-.17.02-.78.03-1.83s.02-2.5.02-4.37c0-.75,0-1.73-.01-2.97,0-1.23-.02-2.54-.04-3.92l1.56-.74c.12.16,1.17,1.49,3.14,3.99,1.97,2.5,3.83,4.82,5.57,6.97h.02c0-1.06-.01-2.83-.04-5.32-.03-2.49-.04-4.34-.04-5.54h1.6Z" fill="url(#linear-gradient)" stroke-width="0"/>
    <path d="M89.29,21.86c0,.66-.19,1.26-.57,1.82-.38.56-.94,1.02-1.69,1.39-.62.3-1.29.52-1.99.67-.71.15-1.6.22-2.69.22-.16,0-.33,0-.5,0-.17,0-.29,0-.37-.02l-.19-1.35h1.03c.59,0,1.19-.03,1.77-.1s1.1-.17,1.53-.32c.63-.21,1.12-.5,1.46-.86.34-.36.52-.82.52-1.38,0-.49-.18-.91-.53-1.25s-.82-.59-1.38-.75c-.24-.07-.51-.12-.8-.15s-.64-.05-1.05-.05c-.15,0-.29,0-.42.01s-.24.01-.34.02l-.18-1.26c1.29-.13,2.26-.41,2.94-.83.67-.42,1.01-.99,1.01-1.71,0-.5-.12-.9-.36-1.21s-.59-.56-1.03-.73c-.31-.12-.68-.21-1.11-.27s-.84-.08-1.25-.08c-.18,0-.36,0-.55,0-.19,0-.31,0-.36,0l.28-1.37h.51c.72,0,1.38.04,1.97.11.6.07,1.19.24,1.77.51.55.25,1,.6,1.33,1.05s.5,1,.5,1.67-.23,1.32-.7,1.88c-.47.56-1.04.97-1.73,1.25v.04c.98.18,1.75.52,2.33,1s.86,1.17.86,2.06Z" fill="url(#linear-gradient)" stroke-width="0"/>
  </g>
</svg>