<?xml version="1.0" encoding="UTF-8"?>
<svg id="Cloud_Stroke" xmlns="http://www.w3.org/2000/svg" xmlns:xlink="http://www.w3.org/1999/xlink" viewBox="0 0 1468 1114.27">
  <defs>
    <linearGradient id="linear-gradient" x1="36.37" y1="584.78" x2="1411.37" y2="584.78" gradientUnits="userSpaceOnUse">
      <stop offset="0" stop-color="#0071bc"/>
      <stop offset=".37" stop-color="#0072bc"/>
      <stop offset=".5" stop-color="#0079c0"/>
      <stop offset=".6" stop-color="#0085c5"/>
      <stop offset=".67" stop-color="#0096cd"/>
      <stop offset=".74" stop-color="#00acd8"/>
      <stop offset=".8" stop-color="#00c7e4"/>
      <stop offset=".85" stop-color="#00e7f3"/>
      <stop offset=".88" stop-color="aqua"/>
    </linearGradient>
  </defs>
  <g id="CloudNew">
    <path d="M380.12,1084.78c-94.79,0-175.78-32.81-242.97-98.44s-100.78-145.83-100.78-240.62c0-81.25,24.48-153.65,73.44-217.19,48.96-63.54,113.02-104.17,192.19-121.88,26.04-95.83,78.12-173.44,156.25-232.81s166.67-89.06,265.62-89.06c121.88,0,225.26,42.45,310.16,127.34,84.9,84.9,127.34,188.28,127.34,310.16,71.88,8.33,131.51,39.32,178.91,92.97,47.4,53.65,71.09,116.41,71.09,188.28,0,78.12-27.34,144.53-82.03,199.22s-121.09,82.03-199.22,82.03H380.12ZM380.12,959.78h750c43.75,0,80.73-15.1,110.94-45.31,30.21-30.21,45.31-67.19,45.31-110.94s-15.1-80.73-45.31-110.94c-30.21-30.21-67.19-45.31-110.94-45.31h-93.75v-125c0-86.46-30.47-160.16-91.41-221.09s-134.64-91.41-221.09-91.41-160.16,30.47-221.09,91.41-91.41,134.64-91.41,221.09h-31.25c-60.42,0-111.98,21.35-154.69,64.06-42.71,42.71-64.06,94.27-64.06,154.69s21.35,111.98,64.06,154.69c42.71,42.71,94.27,64.06,154.69,64.06Z" fill="url(#linear-gradient)" stroke-width="0"/>
  </g>
</svg>