<?xml version="1.0" encoding="UTF-8"?>
<svg id="Layer_7" data-name="Layer 7" xmlns="http://www.w3.org/2000/svg" xmlns:xlink="http://www.w3.org/1999/xlink" viewBox="0 0 1864.73 1114.27">
  <defs>
    <linearGradient id="linear-gradient" x1="127.88" y1="557.13" x2="1736.86" y2="557.13" gradientUnits="userSpaceOnUse">
      <stop offset="0" stop-color="aqua"/>
      <stop offset=".09" stop-color="#00f9f9"/>
      <stop offset=".2" stop-color="#01e8ea"/>
      <stop offset=".34" stop-color="#02cdd1"/>
      <stop offset=".48" stop-color="#04a6ae"/>
      <stop offset=".63" stop-color="#077582"/>
      <stop offset=".79" stop-color="#0a3a4c"/>
      <stop offset=".93" stop-color="#0d0219"/>
    </linearGradient>
  </defs>
  <path d="M474.66,357.32c-30.42,11-163.71,107.79-215.17,172.66-17.81,22.45-102.07,128.37-77.63,258.54,15.97,85.03,69.79,136.01,93.7,158.67,42.14,39.92,93.29,67.21,191.44,88.71,111.13,24.34,178.39,18.44,447.18,11.62,124.39-3.16,186.58-4.74,203.09-4.3,119.48,3.17,193.54,1.45,341.65-1.98,14.67-.34,42.98-1.24,76.55-15.23,1.2-.5,5.1-2.1,8.78-3.86,41.52-19.81,83.08-49.36,94.17-68.2,29.45-50.02,42.4-92.56,47.17-141.53,3.99-40.92,2.86-106.63-25.43-172.73-13.93-32.56-32.12-52.41-43.66-64.77-66.86-71.63-126.09-50.84-169.77-108.55-27.08-35.78-23.82-69.56-33.37-109.53-45.24-189.32-317.89-264.99-351.21-274.21-46-12.73-246.84-68.3-432.84,69.09-103.52,76.46-156.7,179.31-180.35,233.19" fill="none" stroke="url(#linear-gradient)" stroke-miterlimit="10" stroke-width="99.15"/>
</svg>