<?xml version="1.0" encoding="UTF-8"?>
<svg id="Layer_3" data-name="Layer 3" xmlns="http://www.w3.org/2000/svg" xmlns:xlink="http://www.w3.org/1999/xlink" viewBox="0 0 128 32">
  <defs>
    <linearGradient id="linear-gradient" x1="3.81" y1="15.66" x2="92.8" y2="15.66" gradientUnits="userSpaceOnUse">
      <stop offset="0" stop-color="aqua"/>
      <stop offset=".08" stop-color="#03fdfb"/>
      <stop offset=".16" stop-color="#0ffaf2"/>
      <stop offset=".24" stop-color="#23f3e3"/>
      <stop offset=".32" stop-color="#3febcd"/>
      <stop offset=".39" stop-color="#63dfb1"/>
      <stop offset=".47" stop-color="#8fd18f"/>
      <stop offset=".55" stop-color="#c2c167"/>
      <stop offset=".62" stop-color="#fbb03b"/>
      <stop offset=".67" stop-color="#f9a338"/>
      <stop offset=".77" stop-color="#f68033"/>
      <stop offset=".9" stop-color="#f1492b"/>
      <stop offset="1" stop-color="#ed1c24"/>
    </linearGradient>
  </defs>
  <g>
    <path d="M7.31,7.79h3.51c.96,0,1.78.34,2.47,1.03.69.69,1.03,1.51,1.03,2.46v8.76c0,.95-.34,1.77-1.03,2.46-.69.69-1.51,1.04-2.47,1.04h-3.51c-.96,0-1.78-.34-2.46-1.03s-1.03-1.51-1.03-2.47v-8.76c0-.96.34-1.78,1.03-2.47s1.51-1.03,2.46-1.03ZM7.31,11.28v8.76c0,.47.17.88.51,1.22.34.34.76.52,1.24.52s.9-.17,1.24-.52c.34-.34.51-.75.51-1.22v-8.76c0-.48-.17-.88-.52-1.23-.35-.34-.76-.51-1.23-.51s-.89.17-1.24.51c-.34.34-.52.75-.52,1.23Z" fill="#000" stroke-width="0"/>
    <path d="M17.81,23.54V7.79h7.01c.96,0,1.78.34,2.47,1.03.69.69,1.03,1.51,1.03,2.46v.95c0,.78-.27,1.54-.8,2.26-.54.72-1.43,1.09-2.69,1.09h1.74c.48,0,.89.17,1.24.52.34.34.52.76.52,1.24v6.2h-3.49v-5.25c0-.48-.17-.89-.52-1.24-.35-.34-.76-.52-1.23-.52h-1.76v7.01h-3.49ZM21.3,14.79h1.76c.48,0,.89-.17,1.23-.52s.52-.76.52-1.23v-1.76c0-.48-.17-.88-.52-1.23-.35-.34-.76-.51-1.23-.51h-1.76v5.25Z" fill="#000" stroke-width="0"/>
    <path d="M33.54,23.54V7.79h3.5v15.75h-3.5Z" fill="#000" stroke-width="0"/>
    <path d="M45.8,7.79h3.51c.96,0,1.78.34,2.47,1.03.69.69,1.03,1.51,1.03,2.46v8.76c0,.95-.34,1.77-1.03,2.46-.69.69-1.51,1.04-2.47,1.04h-3.51c-.96,0-1.78-.34-2.46-1.03s-1.03-1.51-1.03-2.47v-8.76c0-.96.34-1.78,1.03-2.47s1.51-1.03,2.46-1.03ZM45.8,11.28v8.76c0,.47.17.88.51,1.22.34.34.76.52,1.24.52s.9-.17,1.24-.52c.34-.34.51-.75.51-1.22v-8.76c0-.48-.17-.88-.52-1.23-.35-.34-.76-.51-1.23-.51s-.89.17-1.24.51c-.34.34-.52.75-.52,1.23Z" fill="#000" stroke-width="0"/>
    <path d="M56.3,23.54V7.79h.8l9.7,8.74V7.79h1.76v15.75h-.8l-9.7-8.74v8.74h-1.76Z" fill="#000" stroke-width="0"/>
    <path d="M82.3,7.79h10.5v1.76s-5.25,3.49-5.25,3.49h1.76c1,0,1.83.38,2.5,1.15.66.77,1,1.55,1,2.34v3.51c0,.96-.35,1.78-1.04,2.47-.69.69-1.51,1.03-2.46,1.03h-3.51c-2.06,0-3.23-1.17-3.49-3.49h1.76c.08,1.16.66,1.74,1.74,1.74h1.76c.48,0,.89-.17,1.23-.51.35-.34.52-.75.52-1.23v-3.51c0-.27-.15-.63-.44-1.07-.29-.44-.73-.66-1.32-.66h-3.49v-1.76l5.25-3.49h-7.01v-1.76Z" fill="#000" stroke-width="0"/>
  </g>
  <g>
    <path d="M7.31,7.79h3.51c.96,0,1.78.34,2.47,1.03.69.69,1.03,1.51,1.03,2.46v8.76c0,.95-.34,1.77-1.03,2.46-.69.69-1.51,1.04-2.47,1.04h-3.51c-.96,0-1.78-.34-2.46-1.03s-1.03-1.51-1.03-2.47v-8.76c0-.96.34-1.78,1.03-2.47s1.51-1.03,2.46-1.03ZM7.31,11.28v8.76c0,.47.17.88.51,1.22.34.34.76.52,1.24.52s.9-.17,1.24-.52c.34-.34.51-.75.51-1.22v-8.76c0-.48-.17-.88-.52-1.23-.35-.34-.76-.51-1.23-.51s-.89.17-1.24.51c-.34.34-.52.75-.52,1.23Z" fill="url(#linear-gradient)" stroke-width="0"/>
    <path d="M17.81,23.54V7.79h7.01c.96,0,1.78.34,2.47,1.03.69.69,1.03,1.51,1.03,2.46v.95c0,.78-.27,1.54-.8,2.26-.54.72-1.43,1.09-2.69,1.09h1.74c.48,0,.89.17,1.24.52.34.34.52.76.52,1.24v6.2h-3.49v-5.25c0-.48-.17-.89-.52-1.24-.35-.34-.76-.52-1.23-.52h-1.76v7.01h-3.49ZM21.3,14.79h1.76c.48,0,.89-.17,1.23-.52s.52-.76.52-1.23v-1.76c0-.48-.17-.88-.52-1.23-.35-.34-.76-.51-1.23-.51h-1.76v5.25Z" fill="url(#linear-gradient)" stroke-width="0"/>
    <path d="M33.54,23.54V7.79h3.5v15.75h-3.5Z" fill="url(#linear-gradient)" stroke-width="0"/>
    <path d="M45.8,7.79h3.51c.96,0,1.78.34,2.47,1.03.69.69,1.03,1.51,1.03,2.46v8.76c0,.95-.34,1.77-1.03,2.46-.69.69-1.51,1.04-2.47,1.04h-3.51c-.96,0-1.78-.34-2.46-1.03s-1.03-1.51-1.03-2.47v-8.76c0-.96.34-1.78,1.03-2.47s1.51-1.03,2.46-1.03ZM45.8,11.28v8.76c0,.47.17.88.51,1.22.34.34.76.52,1.24.52s.9-.17,1.24-.52c.34-.34.51-.75.51-1.22v-8.76c0-.48-.17-.88-.52-1.23-.35-.34-.76-.51-1.23-.51s-.89.17-1.24.51c-.34.34-.52.75-.52,1.23Z" fill="url(#linear-gradient)" stroke-width="0"/>
    <path d="M56.3,23.54V7.79h.8l9.7,8.74V7.79h1.76v15.75h-.8l-9.7-8.74v8.74h-1.76Z" fill="url(#linear-gradient)" stroke-width="0"/>
    <path d="M82.3,7.79h10.5v1.76s-5.25,3.49-5.25,3.49h1.76c1,0,1.83.38,2.5,1.15.66.77,1,1.55,1,2.34v3.51c0,.96-.35,1.78-1.04,2.47-.69.69-1.51,1.03-2.46,1.03h-3.51c-2.06,0-3.23-1.17-3.49-3.49h1.76c.08,1.16.66,1.74,1.74,1.74h1.76c.48,0,.89-.17,1.23-.51.35-.34.52-.75.52-1.23v-3.51c0-.27-.15-.63-.44-1.07-.29-.44-.73-.66-1.32-.66h-3.49v-1.76l5.25-3.49h-7.01v-1.76Z" fill="url(#linear-gradient)" stroke-width="0"/>
  </g>
</svg>