<?xml version="1.0" encoding="UTF-8"?>
<svg id="Web_Stroke" xmlns="http://www.w3.org/2000/svg" xmlns:xlink="http://www.w3.org/1999/xlink" viewBox="0 0 1881.22 1114.27">
  <defs>
    <linearGradient id="CyanOrange" x1="85.34" y1="557.13" x2="1795.89" y2="557.13" gradientUnits="userSpaceOnUse">
      <stop offset=".04" stop-color="aqua"/>
      <stop offset=".04" stop-color="#03fdfb"/>
      <stop offset=".08" stop-color="#31e9d2"/>
      <stop offset=".12" stop-color="#5ad7ac"/>
      <stop offset=".17" stop-color="#7fc78a"/>
      <stop offset=".22" stop-color="#a0b86c"/>
      <stop offset=".28" stop-color="#bbac54"/>
      <stop offset=".34" stop-color="#d1a340"/>
      <stop offset=".41" stop-color="#e29b30"/>
      <stop offset=".5" stop-color="#ee9625"/>
      <stop offset=".63" stop-color="#f5931f"/>
      <stop offset=".99" stop-color="#f7931e"/>
    </linearGradient>
    <linearGradient id="CyanOrange-2" data-name="CyanOrange" x1="172.64" y1="202.08" x2="1726.88" y2="202.08" xlink:href="#CyanOrange"/>
    <linearGradient id="CyanOrange-3" data-name="CyanOrange" x1="822.8" x2="1058.42" xlink:href="#CyanOrange"/>
    <linearGradient id="CyanOrange-4" data-name="CyanOrange" x1="822.3" x2="1058.92" xlink:href="#CyanOrange"/>
  </defs>
  <rect x="134.91" y="105.71" width="1611.4" height="902.84" rx="70.35" ry="70.35" fill="none" stroke="url(#CyanOrange)" stroke-miterlimit="10" stroke-width="99.15"/>
  <line x1="172.75" y1="200.27" x2="1726.76" y2="203.88" fill="none" stroke="url(#CyanOrange-2)" stroke-miterlimit="10" stroke-width="99.15"/>
  <path d="M940.61,659.63c-16.1,0-31.32-2.69-45.65-8.07s-26.85-12.73-37.55-22.04c-10.7-9.31-19.14-20.2-25.33-32.67s-9.28-25.71-9.28-39.72,3.09-27.46,9.28-39.85,14.63-23.23,25.33-32.54,23.22-16.66,37.55-22.04,29.55-8.07,45.65-8.07,31.56,2.69,45.8,8.07,26.7,12.73,37.41,22.04,19.14,20.16,25.33,32.54,9.28,25.67,9.28,39.85-3.09,27.25-9.28,39.72-14.63,23.36-25.33,32.67c-10.7,9.31-23.17,16.66-37.41,22.04s-29.5,8.07-45.8,8.07ZM940.61,638.62c5.11-6.15,9.52-12.56,13.25-19.22s6.77-13.75,9.13-21.27h-44.77c2.36,7.52,5.4,14.61,9.13,21.27s8.15,13.07,13.25,19.22ZM909.98,634.52c-3.53-5.64-6.63-11.49-9.28-17.55-2.65-6.06-4.86-12.34-6.63-18.83h-34.75c5.69,8.54,12.81,15.97,21.35,22.29,8.54,6.32,18.31,11.02,29.31,14.09ZM971.24,634.52c11-3.08,20.76-7.77,29.31-14.09,8.54-6.32,15.66-13.75,21.35-22.29h-34.75c-1.77,6.49-3.98,12.77-6.63,18.83-2.65,6.06-5.74,11.92-9.28,17.55ZM849.31,577.63h40.06c-.59-3.42-1.03-6.79-1.33-10.12s-.44-6.79-.44-10.38.15-7.05.44-10.38.74-6.71,1.33-10.12h-40.06c-.98,3.42-1.72,6.79-2.21,10.12s-.74,6.79-.74,10.38.25,7.05.74,10.38,1.23,6.71,2.21,10.12ZM912.93,577.63h55.37c.59-3.42,1.03-6.79,1.33-10.12s.44-6.79.44-10.38-.15-7.05-.44-10.38-.74-6.71-1.33-10.12h-55.37c-.59,3.42-1.03,6.79-1.33,10.12s-.44,6.79-.44,10.38.15,7.05.44,10.38.74,6.71,1.33,10.12ZM991.86,577.63h40.06c.98-3.42,1.72-6.79,2.21-10.12s.74-6.79.74-10.38-.25-7.05-.74-10.38-1.23-6.71-2.21-10.12h-40.06c.59,3.42,1.03,6.79,1.33,10.12s.44,6.79.44,10.38-.15,7.05-.44,10.38-.74,6.71-1.33,10.12ZM987.15,516.13h34.75c-5.69-8.54-12.81-15.97-21.35-22.29s-18.31-11.02-29.31-14.09c3.53,5.64,6.63,11.49,9.28,17.55s4.86,12.34,6.63,18.83ZM918.23,516.13h44.77c-2.36-7.52-5.4-14.61-9.13-21.27s-8.15-13.07-13.25-19.22c-5.11,6.15-9.52,12.56-13.25,19.22s-6.77,13.75-9.13,21.27ZM859.32,516.13h34.75c1.77-6.49,3.98-12.77,6.63-18.83s5.74-11.92,9.28-17.55c-11,3.08-20.76,7.77-29.31,14.09s-15.66,13.75-21.35,22.29Z" fill="url(#CyanOrange-3)" stroke="url(#CyanOrange-4)" stroke-miterlimit="10"/>
</svg>