<?xml version="1.0" encoding="UTF-8"?>
<svg id="Layer_1" data-name="Layer 1" xmlns="http://www.w3.org/2000/svg" viewBox="0 0 140 140">
  <polygon points="86.46 137.01 103.87 76.92 43.13 91.89 86.46 137.01" fill="none" stroke="#000" stroke-miterlimit="10"/>
  <polygon points="102.02 131.12 104.54 68.62 49.15 97.69 102.02 131.12" fill="none" stroke="#000" stroke-miterlimit="10"/>
  <polygon points="115.72 121.68 103.21 60.39 56.38 101.87 115.72 121.68" fill="none" stroke="#000" stroke-miterlimit="10"/>
  <polygon points="126.76 109.24 99.94 52.72 64.41 104.2 126.76 109.24" fill="none" stroke="#000" stroke-miterlimit="10"/>
  <polygon points="134.5 94.51 94.94 46.06 72.76 104.55 134.5 94.51" fill="none" stroke="#000" stroke-miterlimit="10"/>
  <polygon points="138.49 78.36 88.48 40.79 80.94 102.88 138.49 78.36" fill="none" stroke="#000" stroke-miterlimit="10"/>
  <polygon points="138.5 61.73 80.95 37.21 88.49 99.31 138.5 61.73" fill="none" stroke="#000" stroke-miterlimit="10"/>
  <polygon points="134.53 45.58 72.79 35.54 94.97 94.03 134.53 45.58" fill="none" stroke="#000" stroke-miterlimit="10"/>
  <polygon points="126.81 30.84 64.46 35.88 100 87.36 126.81 30.84" fill="none" stroke="#000" stroke-miterlimit="10"/>
  <polygon points="115.79 18.39 56.46 38.19 103.28 79.67 115.79 18.39" fill="none" stroke="#000" stroke-miterlimit="10"/>
  <polygon points="102.11 8.93 49.24 42.36 104.63 71.43 102.11 8.93" fill="none" stroke="#000" stroke-miterlimit="10"/>
  <polygon points="86.56 3.02 43.23 48.13 103.96 63.1 86.56 3.02" fill="none" stroke="#000" stroke-miterlimit="10"/>
  <polygon points="70.05 1 38.77 55.17 101.32 55.17 70.05 1" fill="none" stroke="#000" stroke-miterlimit="10"/>
  <polygon points="53.53 2.99 36.13 63.08 96.87 48.11 53.53 2.99" fill="none" stroke="#000" stroke-miterlimit="10"/>
  <polygon points="37.98 8.88 35.46 71.38 90.85 42.31 37.98 8.88" fill="none" stroke="#000" stroke-miterlimit="10"/>
  <polygon points="24.28 18.32 36.79 79.61 83.61 38.13 24.28 18.32" fill="none" stroke="#000" stroke-miterlimit="10"/>
  <polygon points="13.24 30.76 40.06 87.28 75.59 35.8 13.24 30.76" fill="none" stroke="#000" stroke-miterlimit="10"/>
  <polygon points="5.5 45.49 45.06 93.94 67.24 35.45 5.5 45.49" fill="none" stroke="#000" stroke-miterlimit="10"/>
  <polygon points="1.51 61.63 51.52 99.21 59.06 37.12 1.51 61.63" fill="none" stroke="#000" stroke-miterlimit="10"/>
  <polygon points="1.5 78.27 59.04 102.79 51.5 40.69 1.5 78.27" fill="none" stroke="#000" stroke-miterlimit="10"/>
  <polygon points="5.47 94.42 67.21 104.45 45.03 45.97 5.47 94.42" fill="none" stroke="#000" stroke-miterlimit="10"/>
  <polygon points="13.19 109.16 75.54 104.12 40 52.64 13.19 109.16" fill="none" stroke="#000" stroke-miterlimit="10"/>
  <polygon points="24.21 121.61 83.54 101.81 36.72 60.33 24.21 121.61" fill="none" stroke="#000" stroke-miterlimit="10"/>
  <polygon points="37.89 131.07 90.76 97.64 35.37 68.57 37.89 131.07" fill="none" stroke="#000" stroke-miterlimit="10"/>
  <polygon points="53.44 136.98 96.77 91.87 36.04 76.9 53.44 136.98" fill="none" stroke="#000" stroke-miterlimit="10"/>
  <polygon points="69.95 139 101.23 84.83 38.67 84.83 69.95 139" fill="none" stroke="#000" stroke-miterlimit="10"/>
</svg>