<?xml version="1.0" encoding="UTF-8"?>
<svg id="Layer_8" data-name="Layer 8" xmlns="http://www.w3.org/2000/svg" viewBox="0 0 1881.22 1139.03">
  <rect x="79.67" y="76.19" width="1721.88" height="723.8" rx="5.19" ry="5.19" fill="none" stroke="#c1272d" stroke-miterlimit="10" stroke-width="40"/>
  <circle cx="1444.63" cy="438.09" r="217.14" fill="none" stroke="#c1272d" stroke-miterlimit="10" stroke-width="40"/>
  <line x1="1583.78" y1="281.94" x2="1449.24" y2="442.7" fill="none" stroke="#c1272d" stroke-linecap="round" stroke-miterlimit="10" stroke-width="40"/>
  <line x1="1449.24" y1="442.7" x2="1599.29" y2="583.57" fill="none" stroke="#c1272d" stroke-linecap="round" stroke-miterlimit="10" stroke-width="40"/>
  <rect x="215.61" y="220.95" width="181.7" height="434.28" fill="none" stroke="#c1272d" stroke-linecap="round" stroke-miterlimit="10" stroke-width="40"/>
  <rect x="728.57" y="220.95" width="181.7" height="434.28" fill="none" stroke="#c1272d" stroke-linecap="round" stroke-miterlimit="10" stroke-width="40"/>
  <rect x="471.83" y="359.24" width="181.7" height="299.27" fill="none" stroke="#c1272d" stroke-linecap="round" stroke-miterlimit="10" stroke-width="33.21"/>
  <line x1="191.18" y1="656.92" x2="927.34" y2="655.76" fill="none" stroke="#c1272d" stroke-linecap="round" stroke-miterlimit="10" stroke-width="40"/>
  <line x1="92.92" y1="737.12" x2="1787.9" y2="734.33" fill="none" stroke="#c1272d" stroke-linecap="round" stroke-miterlimit="10" stroke-width="40"/>
  <g>
    <path d="M906.85,826.48c0,148.17-64.72,268.07-144.7,268.07" fill="none" stroke="#c1272d" stroke-linecap="round" stroke-miterlimit="10" stroke-width="41.31"/>
    <line x1="700.47" y1="1094.55" x2="1180.76" y2="1094.55" fill="none" stroke="#c1272d" stroke-linecap="round" stroke-miterlimit="10" stroke-width="40"/>
    <path d="M995.38,826.48c0,148.17,64.72,268.07,144.7,268.07" fill="none" stroke="#c1272d" stroke-linecap="round" stroke-miterlimit="10" stroke-width="41.31"/>
  </g>
  <line x1="79.67" y1="1092.06" x2="1815.21" y2="1095.55" fill="none" stroke="#c1272d" stroke-linecap="round" stroke-miterlimit="10" stroke-width="41.31"/>
</svg>