<?xml version="1.0" encoding="UTF-8"?>
<svg id="logoPulsar" xmlns="http://www.w3.org/2000/svg" viewBox="0 0 43.23 32.51"><metadata></metadata>
  <defs>
    <style>
      .cls-1 {
        fill: #231f20;
        stroke-width: 0px;
      }

      .cls-2 {
        fill: none;
        stroke: #231f20;
        stroke-miterlimit: 10;
        stroke-width: 1.3px;
      }
    </style>
  </defs>
  <g id="Ship">
    <path class="cls-2" d="M40.14,23.51c-2.59,4.49-7.43,7.51-13,7.51"/>
    <path class="cls-2" d="M40.14,8.5c-2.59-4.49-7.43-7.51-13-7.51"/>
    <path class="cls-2" d="M40.14,8.5c1.28,2.21,2.02,4.77,2.02,7.5s-.74,5.29-2.02,7.5"/>
    <path class="cls-2" d="M27.15,31.02c-5.56,0-10.4-3.02-13-7.51"/>
    <path class="cls-2" d="M14.15,8.5c2.59-4.49,7.43-7.51,13-7.51"/>
    <line class="cls-2" x1="19.71" y1="11.71" x2="14.15" y2="8.5"/>
    <line class="cls-2" x1="14.15" y1="8.5" x2="1.14" y2=".99"/>
    <line class="cls-2" x1="1.14" y1="31.02" x2="14.15" y2="23.51"/>
    <line class="cls-2" x1="19.71" y1="20.3" x2="14.15" y2="23.51"/>
    <path class="cls-2" d="M34.58,11.71c.73,1.26,1.16,2.73,1.16,4.29s-.43,3.03-1.16,4.29"/>
    <path class="cls-2" d="M19.38,12.26c1.55-2.89,4.44-4.84,7.76-4.84"/>
    <path class="cls-2" d="M19.19,19.83c1.59,2.85,4.55,4.77,7.96,4.77"/>
    <path class="cls-2" d="M27.15,24.6c3.18,0,5.95-1.73,7.44-4.3"/>
    <path class="cls-2" d="M34.58,11.71c-1.49-2.57-4.26-4.3-7.44-4.3"/>
  </g>
  <g id="aliens">
    <circle id="Member6" class="cls-1" cx="27.15" cy="16.01" r="1.86"/>
    <circle id="Member5" class="cls-1" cx="34.47" cy="6.41" r="1.86"/>
    <circle id="Member4" class="cls-1" cx="22.82" cy="4.99" r="1.86"/>
    <circle id="Member3" class="cls-1" cx="38.67" cy="16.01" r="1.86"/>
    <circle id="Member2" class="cls-1" cx="34.47" cy="25.37" r="1.86"/>
    <circle id="Member1" class="cls-1" cx="22.82" cy="27.23" r="1.86"/>
  </g>
</svg>