<?xml version="1.0" encoding="UTF-8"?>
<svg id="Layer_6" data-name="Layer 6" xmlns="http://www.w3.org/2000/svg" viewBox="0 0 121 21.29"
  <path  d="M36.41,2.89c-.05-.04-.07.03,0,0h0Z"/>
  <path  d="M75.18,1.45s.02,0,.04,0c.03-.2.05-.37.08-.5l-.12.51Z"/>
  <path  d="M81.41,2.7s.02.03.04.05c0-.12,0-.24-.04-.05Z"/>
  <path  d="M60.81,3.31c-.05-.01-.08.03-.11.1.03-.04.06-.08.11-.1Z"/>
  <path  d="M24.99,3.95s.02,0,.03-.02c-.02-.04-.04-.07-.07-.12l.04.14Z"/>
  <path  d="M25.11,3.61c.14.15-.04.28-.1.32.15.27.3.29.46.17,0-.31-.29-.26-.36-.49Z"/>
  <path  d="M4.26,4.79l.06-.12s-.04.08-.06.12Z"/>
  <path  d="M61.41,18.47s-.07.04-.09.07c.05,0,.08-.03.09-.07Z"/>
  <path  d="M7.53,5.1l.04-.49c-.03.2-.04.36-.04.49Z"/>
  <path  d="M75.29.94l.05-.19s-.03.11-.05.19Z"/>
  <path  d="M87.17,3.02c0,.15.02.27.03.37,0,0,.01,0,.02,0l-.05-.38Z"/>
  <path  d="M116.2,10.83c0-.06,0-.12-.02-.19l-.12.35c.06-.03.1-.08.13-.16Z"/>
  <path  d="M95.07,5.15c0-.06.03-.11.03-.17-.14-.16-.49-.2-.95-.18l-.03.6.95-.25Z"/>
  <path  d="M103.7,19.18l-.84-1.21c2.7-.55,3.96.66,6.28-.32l-.13.26c.34.28.53-2.44,4.25.88v.12c.13-.02.13-.26.39.06l-.64-.74c.39-.3.72-.88,1.24-.96.11.13.15.38.16.58l1.26-.2.39.78c.39-.42.21-2.07,1.24-1.15-.39-1.14.51-.69.38-1.27.05.14.17.35.26.55.61-.13,1.77-.45,2.05-1.04,0,0-2.4-2.41-3.04-3.64.86.31.23-.14.06-.52l-.06.28c-.52-.28-.52-1-.77-1.2,0,.06,0,.13.01.2l.03-.1c.02.13,0,.22-.02.29,0,.15-.02.28-.16.23l.03-.08c-.22.11-.59,0-.75-.06v-.6c-.39,1.15-2.58-1.75-3.09-1.79-.52-.76-1.16.19-1.8-.19-1.03-.2-.51-.88-1.03-1.4-.64-.38.13.7-.13.74l-.77-.84c.45-.07.21-.44.12-.67-.67-.1-1.72-1.21-1.93,0-.9-.58-.9-1.06-1.29-1.12.13.22.39.42.39.66-.36-.53-.17.13-.02.25-.55.52-2.85-2.2-2.97-.87v-.24c-.13.98.08,1.94-.31,2.48l-.26-.44-.39.42c-.26-.32-.13-.58-.13-.7-.63.45-1.51-.09-2.27-.22l.81,2.68c-.64-.62-1.8-1.88-1.93-1.02l-.39-.9c-1.29-1.72-.9.75-1.41.23l-.65-.98.64.02c-.64-.5-.9-.82-1.41-1.46,0,0,0,.02,0,.03.04.04.06.09.06.15l-.09.02c-.08.49-.41.83-.87.79-.64-.14-1.15.59-2.18-.46l-.26,1-.77-.6v-.8c.76.05,2.18-.26,3.16-.3l.02-.37c-.58,0-1.23.35-1.61.27-.19-.16-.66-.99-.32-1.53l-.36.78c-1.93.09-1.94.13-3.95-.78l.17.4c-.4.24-.8.47-.91-.19-1.21-.13-2.46-.64-3.24-1.65l-.17.94c-.25-.05-.64-1.48-.76-.16l-.54.42c-.35-.07-.56.47-.96-.08,0,0,0,0,0,0,0,0,0,0,0,0-.02-.03-.05-.07-.07-.11,0,.03,0,.05,0,.08-.79-.42,0,.84-.9.3-.29-.67-.32,1.2-.76.98l-.44-1.35c-.8-.78-.93.58-2.09.58-.55-.48-.82-1.64-.45-2.66-.51,1.24-.23.81-.9,1.4-.1-.51-.03-.62.12-1.08-.59-.6-.37.46-.82.43-.13.96-.28,2.49-.43,2.55l.17.3c-.48.51-.99.75-1.55.27l.02-.48-.59.24-.04-.62-.84.19.11.17c-.2.08-.84.29-1.21-.03v-.34c-1.03-1.07-1.89.33-3.11.44l.16-.7c-.42-.7-.11,1.08-.61.73l-.02-.86c-.44,1.13-.56-.24-.87-.67l.14,1.13-.57-.24c-.62-.37-.38-1.42-.29-2.01l-.43.89-.08-.99c-.31,1.16-.31-.19-.86.43-.04-.38.09-.59-.09-.75l-.9,1.4.54-.62-.07,1.45c-.56,1.1-.76-.16-1.17.25l.28-.43c-.66.35-.69-.27-1.06-.59.11.27.29.67.02.86-.2.08-.11-.51-.29-.67-.04.97-.52,1.48-.94,1.02,0-.14.01-.27.04-.36-.11.16-.17.41-.36.17l.11-1.08-.37,1.02c-.24-.29-.6.49-.57-.24l.14-.22-1.85-.26-.03-.86c-.18,1.18-1.01-.45-.95,1.03-.35-.81-1.37.57-1.17-1.1-1.21-.13-1.87,1.47-3.34.66-.52-1.42-1.96-.96-2.91-1.11-1.85.59-3.05,1.12-4.94,1.58-1.14-1.98-2.84.68-4.06-.44l-.34.78c-.81-1.25-2.06.28-3.2-.94-.28.34-.43.45-.49.48.05.04.13.19.15.68-.33-.35-.98.09-.94-.91l.08-.1c.05-1-.99.46-1.35-.4l.2,1.07-.62-.18.17-.2c-2.68,2.37-3.89-1.02-6.41,1.14.33-1.16-.5.61-.53-.66-.63-1.6-1.18.34-1.7.77,0,.06,0,.14-.04.23l-.91-.15c.54-1.61-.66,1.33-.16-.03-2.37-1.2-5.47.02-8.22-.54l.12.41c-.7-.08-1.56.42-2.09-.24-.53-.66-1.16,1.05-1.36,1.11-.58.71-1.11-.7-.86-.63-.62.2-1.2,1.67-2.06,1.03-.29-1.36-2.35,1.34-2.37-.2v.13c-1.11-1.08-2.15.76-3.33-.22,0,0,.02-.11.06-.22l-2.42,4.66.68,5.13,2.09,4.17,5.67-.9,4.52,1.63,11.01-.54.79-1.16c2.16,2.02,4.94-.3,7.27,1.15l.05-1c.66-.06.61.56.77.73,6.11-.22,12.41-1.54,17.9-.28.53.66,2.14.27,2.56.97,1.79-1.22,3.68-1.2,5.47-1.08l-.07.11.84-.19c.04.08.04.2.01.28.95-.88,2.45,0,3.61.35l-.07.11c6.79.19,13.09-1.67,19.82-.27,3.13,1.63,6.77-.61,10.36.74.66.99,7.92.25,8.57-.21Z"/>
  <path  d="M114.4,17.85h-.03c0,.42.04.27.03,0Z"/>
  <path  d="M99.4,6.38s.03,0,.05.01l-.18-.59.13.58Z"/>
  <path  d="M109.01,6.04c-.43-.13-.45-.03-.39.14.16.02.29,0,.39-.14Z"/>
  <path  d="M117.93,17.06c.23.03.14-.22,0-.5-.23.05-.39.08-.39.08.13.1.25.32.38.42Z"/>
  <path  d="M117.01,11.36l.07-.34c-.13.08-.13.21-.07.34Z"/>
</svg>