<?xml version="1.0" encoding="UTF-8"?>
<svg xmlns="http://www.w3.org/2000/svg" viewBox="0 0 351 106.89">
  <defs>
    <style>
      .cls-1, .cls-2, .cls-3 {
        fill: none;
      }

      .cls-1, .cls-4 {
        stroke-width: 0px;
      }

      .cls-2, .cls-3 {
        stroke: #231f20;
        stroke-miterlimit: 10;
      }

      .cls-5 {
        font-family: HelveticaNeue, 'Helvetica Neue';
        font-size: 48px;
      }

      .cls-5, .cls-4 {
        fill: #231f20;
      }

      .cls-6 {
        letter-spacing: -.05em;
      }

      .cls-3 {
        stroke-width: 1px;
      }

      .cls-7 {
        letter-spacing: 0em;
      }
    </style>
  </defs>
  <g id="linesLogo">
    <line class="cls-2" x1="30.45" y1="24.52" x2="30.49" y2="34.74"/>
    <line class="cls-2" x1="41.59" y1="39.97" x2="30.49" y2="34.74"/>
    <line class="cls-2" x1="51.43" y1="55.69" x2="51.51" y2="44.02"/>
    <line class="cls-2" x1="41.59" y1="39.97" x2="51.51" y2="44.02"/>
    <line class="cls-2" x1="51.43" y1="55.69" x2="51.33" y2="67.87"/>
    <line class="cls-2" x1="70.11" y1="61.78" x2="76.55" y2="59.2"/>
    <line class="cls-2" x1="76.55" y1="48.15" x2="76.55" y2="59.2"/>
    <line class="cls-2" x1="84.28" y1="44.51" x2="76.55" y2="48.15"/>
    <line class="cls-2" x1="65.22" y1="73.02" x2="70.11" y2="73.02"/>
    <line class="cls-2" x1="77.02" y1="69.62" x2="70.11" y2="73.02"/>
    <line class="cls-1" x1="104.99" y1="77.91" x2="104.91" y2="67.5"/>
    <line class="cls-2" x1="105.04" y1="57.44" x2="93.51" y2="51.25"/>
    <line class="cls-2" x1="104.99" y1="77.91" x2="104.91" y2="67.5"/>
  </g>
  <g id="dotsLogo">
    <circle class="cls-4" cx="41.29" cy="51.25" r="1.75"/>
    <circle class="cls-4" cx="65.02" cy="50.69" r="1.75"/>
    <circle class="cls-4" cx="51.17" cy="87.93" r="1.75"/>
    <circle class="cls-4" cx="51.17" cy="67.02" r="1.75"/>
    <circle class="cls-4" cx="30.01" cy="57.44" r="1.75"/>
    <circle class="cls-4" cx="59.12" cy="69.62" r="1.75"/>
    <circle class="cls-4" cx="58.62" cy="59.2" r="1.75"/>
    <circle class="cls-4" cx="41.29" cy="62.14" r="1.75"/>
    <circle class="cls-4" cx="51.33" cy="44.51" r="1.75"/>
    <circle class="cls-4" cx="76.55" cy="48.15" r="1.75"/>
    <circle class="cls-4" cx="76.55" cy="59.2" r="1.75"/>
    <circle class="cls-4" cx="84.28" cy="67.02" r="1.75"/>
    <circle class="cls-4" cx="104.95" cy="35.66" r="1.75"/>
    <circle class="cls-4" cx="93.51" cy="51.25" r="1.75"/>
    <circle class="cls-4" cx="84.26" cy="55.69" r="1.75"/>
    <circle class="cls-4" cx="76.51" cy="70.25" r="1.75"/>
    <circle class="cls-4" cx="93.55" cy="72" r="1.75"/>
    <circle class="cls-4" cx="76.51" cy="81.3" r="1.75"/>
    <circle class="cls-4" cx="83.97" cy="44.64" r="1.75"/>
    <circle class="cls-4" cx="93.3" cy="40.36" r="1.75"/>
    <circle class="cls-4" cx="104.99" cy="56.97" r="1.75"/>
    <circle class="cls-4" cx="104.99" cy="67.02" r="1.75"/>
    <circle class="cls-4" cx="84.28" cy="77.27" r="1.75"/>
    <circle class="cls-4" cx="104.91" cy="46.4" r="1.75"/>
    <circle class="cls-4" cx="118" cy="39.97" r="1.75"/>
    <circle class="cls-4" cx="117.96" cy="61.41" r="1.75"/>
    <circle class="cls-4" cx="117.96" cy="50.69" r="1.75"/>
    <circle class="cls-4" cx="51.47" cy="55.22" r="1.75"/>
    <circle class="cls-4" cx="117.96" cy="29.26" r="1.75"/>
    <circle class="cls-4" cx="58.62" cy="48.15" r="1.75"/>
    <circle class="cls-4" cx="41.59" cy="39.97" r="1.75"/>
    <circle class="cls-4" cx="41.57" cy="29.26" r="1.75"/>
    <circle class="cls-4" cx="41.29" cy="72" r="1.75"/>
    <circle class="cls-4" cx="51.22" cy="77.27" r="1.75"/>
    <circle class="cls-4" cx="50.85" cy="33.32" r="1.75"/>
    <circle class="cls-4" cx="58.62" cy="37.1" r="1.75"/>
    <circle class="cls-4" cx="93.3" cy="62.42" r="1.75"/>
    <circle class="cls-4" cx="76.51" cy="37.1" r="1.75"/>
    <circle class="cls-4" cx="93.55" cy="29.47" r="1.75"/>
    <circle class="cls-4" cx="93.3" cy="62.42" r="1.75"/>
    <circle class="cls-4" cx="83.97" cy="33.91" r="1.75"/>
    <circle class="cls-4" cx="105.04" cy="24.52" r="1.75"/>
    <circle class="cls-4" cx="76.51" cy="91.44" r="1.75"/>
    <circle class="cls-4" cx="83.97" cy="88.25" r="1.75"/>
    <circle class="cls-4" cx="93.3" cy="62.42" r="1.75"/>
    <circle class="cls-4" cx="93.51" cy="83.91" r="1.75"/>
    <circle class="cls-4" cx="104.99" cy="77.91" r="1.75"/>
    <circle class="cls-4" cx="118" cy="72" r="1.75"/>
    <circle class="cls-4" cx="58.62" cy="80.78" r="1.75"/>
    <circle class="cls-4" cx="65.01" cy="40.36" r="1.75"/>
    <circle class="cls-4" cx="70.07" cy="50.69" r="1.75"/>
    <circle class="cls-4" cx="70.11" cy="62.14" r="1.75"/>
    <circle class="cls-4" cx="70.11" cy="73.02" r="1.75"/>
    <circle class="cls-4" cx="70.11" cy="83.28" r="1.75"/>
    <circle class="cls-4" cx="30.45" cy="24.52" r="1.75"/>
    <circle class="cls-4" cx="30.49" cy="34.74" r="1.75"/>
    <circle class="cls-4" cx="30.45" cy="46.09" r="1.75"/>
    <circle class="cls-4" cx="30.45" cy="67.87" r="1.75"/>
    <circle class="cls-4" cx="30.49" cy="79.02" r="1.75"/>
    <circle class="cls-4" cx="41.29" cy="83.91" r="1.75"/>
    <circle class="cls-4" cx="65.22" cy="62.14" r="1.75"/>
    <circle class="cls-4" cx="65.22" cy="73.02" r="1.75"/>
    <circle class="cls-4" cx="65.02" cy="83.28" r="1.75"/>
    <circle class="cls-4" cx="59.12" cy="91.78" r="1.75"/>
    <circle class="cls-4" cx="17.14" cy="72.57" r="1.75"/>
    <circle class="cls-4" cx="17.09" cy="61.41" r="1.75"/>
    <circle class="cls-4" cx="17.09" cy="50.13" r="1.75"/>
    <circle class="cls-4" cx="17.14" cy="28.79" r="1.75"/>
    <circle class="cls-4" cx="17.14" cy="39.46" r="1.75"/>
    <circle class="cls-4" cx="70.09" cy="40.36" r="1.75"/>
  </g>
  <g id="rectangles">
    <rect class="cls-2" x=".5" y="20.94" width="133.68" height="75"/>
    <rect class="cls-3" x="133.31" y="20.94" width="217.19" height="75"/>
  </g>
  <g id="logoText">
    <text class="cls-5" transform="translate(146.67 71.57)"><tspan class="cls-6" x="0" y="0">cluster</tspan><tspan class="cls-7" x="127.2" y="0" xml:space="preserve"> 44</tspan></text>
  </g>
</svg>