<?xml version="1.0" encoding="UTF-8"?>
<svg id="Layer_3" data-name="Layer 3" xmlns="http://www.w3.org/2000/svg" viewBox="0 0 400 800">
  <path d="M399.9,400.29v399.21H0v-332.96c5.7,22.57,12.32,45.9,19.7,66.3,4.29,11.88,8.85,22.76,13.63,31.93,9.78,18.76,20.52,30.32,31.95,28.44.46-.07.92-.17,1.38-.3,13.94-3.61,23.8-26.61,33.32-52.87.86-2.38,1.72-4.79,2.58-7.21,8.86-24.94,17.73-51.43,29.66-66.3.1-.13.2-.25.3-.37.26-.32.52-.63.78-.93,10.43-12.1,20.04-9.96,29.29.93,1.35,1.59,2.7,3.37,4.04,5.32,9.54,13.89,18.76,36.41,28.21,61.35,1.7,4.48,3.4,9.04,5.12,13.65,6.61,17.73,13.37,36.1,20.45,53.01,4.17,9.96,8.45,19.41,12.88,27.95,9.81,18.9,20.34,33.33,32.01,38.72.27.13.55.25.83.37.16.07.33.13.49.2,6.15,2.47,12.96,2.78,20.46-.57,4.08-1.82,8.37-4.74,12.87-8.98,10.07-9.5,21.17-25.66,33.32-51.19,1-2.1,2.01-4.27,3.03-6.5,8.11-17.81,16.68-39.78,25.72-66.67,1.51-4.5,3.04-9.13,4.58-13.91,5.14-15.96,10.43-33.5,15.86-52.76,5.66-20.05,11.48-41.96,17.46-65.88Z" style="fill: #000; stroke-width: 0px;"/>
  <path d="M399.9-.5v400.79c-5.98,23.92-11.8,45.83-17.46,65.88-5.43,19.25-10.72,36.79-15.86,52.76-1.54,4.78-3.07,9.41-4.58,13.91-9.04,26.89-17.61,48.85-25.72,66.67-1.02,2.23-2.03,4.4-3.03,6.5-12.16,25.53-23.26,41.69-33.32,51.19-4.49,4.24-8.78,7.16-12.87,8.98-7.5,3.35-14.31,3.04-20.46.57-.16-.07-.33-.13-.49-.2-.28-.12-.55-.24-.83-.37-11.66-5.39-22.2-19.81-32.01-38.72-4.43-8.54-8.71-17.99-12.88-27.95-7.08-16.92-13.84-35.28-20.45-53.01-1.71-4.61-3.42-9.17-5.12-13.65-9.44-24.93-18.67-47.46-28.21-61.35-1.34-1.95-2.68-3.73-4.04-5.32-9.25-10.89-18.85-13.03-29.29-.93-.26.3-.52.61-.78.93-.1.12-.2.24-.3.37-11.93,14.87-20.79,41.36-29.66,66.3-.86,2.42-1.72,4.83-2.58,7.21-9.52,26.25-19.38,49.26-33.32,52.87-.45.13-.91.22-1.38.3-11.43,1.87-22.16-9.68-31.95-28.44-4.78-9.16-9.33-20.04-13.63-31.93C12.32,512.43,5.7,489.11,0,466.54V-.5h399.9Z" style="fill: #dd2c41; stroke-width: 0px;"/>
</svg>